<?xml version="1.0" encoding="UTF-8"?>
<svg xmlns="http://www.w3.org/2000/svg" version="1.1" width="100" height="100" viewBox="0 0 100 100"><rect x="0" y="0" width="100" height="100" fill="#ffffff"/><g transform="scale(1.299)"><g transform="translate(0,0)"><path fill-rule="evenodd" d="M8 0L8 1L9 1L9 2L8 2L8 5L9 5L9 4L10 4L10 5L11 5L11 6L10 6L10 7L11 7L11 6L12 6L12 8L8 8L8 9L12 9L12 10L13 10L13 11L12 11L12 12L13 12L13 14L16 14L16 15L14 15L14 16L13 16L13 15L12 15L12 16L11 16L11 17L12 17L12 16L13 16L13 18L11 18L11 19L12 19L12 20L10 20L10 18L9 18L9 17L10 17L10 16L9 16L9 17L8 17L8 18L9 18L9 19L7 19L7 18L6 18L6 19L7 19L7 20L6 20L6 21L5 21L5 22L6 22L6 23L7 23L7 22L6 22L6 21L8 21L8 23L10 23L10 24L5 24L5 23L4 23L4 25L2 25L2 24L1 24L1 23L2 23L2 19L3 19L3 20L5 20L5 17L7 17L7 16L5 16L5 14L6 14L6 15L7 15L7 14L8 14L8 15L9 15L9 14L10 14L10 15L11 15L11 14L12 14L12 13L11 13L11 12L9 12L9 11L11 11L11 10L8 10L8 13L7 13L7 12L6 12L6 13L5 13L5 11L7 11L7 10L5 10L5 11L4 11L4 10L2 10L2 11L0 11L0 12L3 12L3 13L1 13L1 14L2 14L2 16L5 16L5 17L3 17L3 18L2 18L2 19L1 19L1 18L0 18L0 21L1 21L1 23L0 23L0 24L1 24L1 27L0 27L0 29L3 29L3 30L4 30L4 32L2 32L2 33L1 33L1 34L2 34L2 33L4 33L4 35L2 35L2 36L4 36L4 37L3 37L3 38L2 38L2 37L1 37L1 35L0 35L0 38L2 38L2 39L1 39L1 40L0 40L0 49L1 49L1 50L0 50L0 62L1 62L1 63L2 63L2 65L1 65L1 67L2 67L2 65L3 65L3 61L4 61L4 63L5 63L5 64L4 64L4 65L5 65L5 66L4 66L4 68L1 68L1 69L5 69L5 67L7 67L7 66L8 66L8 65L9 65L9 64L10 64L10 66L9 66L9 68L6 68L6 69L8 69L8 70L9 70L9 68L10 68L10 69L11 69L11 70L10 70L10 71L9 71L9 72L10 72L10 74L9 74L9 73L8 73L8 77L9 77L9 76L10 76L10 77L14 77L14 76L15 76L15 77L16 77L16 75L18 75L18 74L19 74L19 76L18 76L18 77L20 77L20 74L21 74L21 73L22 73L22 75L21 75L21 76L24 76L24 77L26 77L26 76L25 76L25 75L23 75L23 74L24 74L24 73L26 73L26 75L27 75L27 76L28 76L28 74L29 74L29 73L31 73L31 74L30 74L30 75L31 75L31 76L30 76L30 77L34 77L34 76L32 76L32 75L34 75L34 74L33 74L33 73L32 73L32 72L34 72L34 73L36 73L36 74L35 74L35 75L36 75L36 76L37 76L37 75L36 75L36 74L39 74L39 75L38 75L38 77L40 77L40 76L41 76L41 77L46 77L46 76L47 76L47 75L48 75L48 73L49 73L49 76L50 76L50 75L51 75L51 76L53 76L53 77L54 77L54 76L55 76L55 74L56 74L56 76L57 76L57 77L60 77L60 76L61 76L61 77L62 77L62 75L63 75L63 76L64 76L64 77L72 77L72 76L74 76L74 75L75 75L75 77L76 77L76 75L77 75L77 74L76 74L76 75L75 75L75 74L74 74L74 73L76 73L76 72L77 72L77 71L76 71L76 70L77 70L77 67L76 67L76 64L77 64L77 60L76 60L76 59L75 59L75 60L74 60L74 61L73 61L73 60L72 60L72 61L73 61L73 62L74 62L74 63L73 63L73 64L71 64L71 63L72 63L72 62L69 62L69 64L68 64L68 62L66 62L66 61L67 61L67 60L68 60L68 59L69 59L69 61L70 61L70 60L71 60L71 59L73 59L73 57L74 57L74 58L77 58L77 56L75 56L75 54L72 54L72 55L70 55L70 54L71 54L71 53L70 53L70 54L69 54L69 53L68 53L68 54L69 54L69 55L68 55L68 56L66 56L66 55L67 55L67 49L68 49L68 51L70 51L70 52L71 52L71 51L72 51L72 53L73 53L73 51L74 51L74 49L75 49L75 48L74 48L74 46L72 46L72 44L73 44L73 45L75 45L75 47L76 47L76 48L77 48L77 47L76 47L76 46L77 46L77 44L76 44L76 41L77 41L77 40L74 40L74 39L73 39L73 38L75 38L75 39L77 39L77 36L76 36L76 34L77 34L77 31L76 31L76 30L75 30L75 31L74 31L74 30L73 30L73 28L74 28L74 27L73 27L73 25L75 25L75 24L77 24L77 23L76 23L76 22L77 22L77 19L76 19L76 17L75 17L75 16L74 16L74 15L77 15L77 13L76 13L76 14L75 14L75 12L76 12L76 10L77 10L77 8L76 8L76 9L75 9L75 8L72 8L72 9L73 9L73 10L72 10L72 11L73 11L73 12L72 12L72 13L74 13L74 14L72 14L72 15L71 15L71 12L68 12L68 11L70 11L70 10L66 10L66 12L68 12L68 13L70 13L70 14L67 14L67 15L64 15L64 14L63 14L63 13L65 13L65 14L66 14L66 13L65 13L65 12L61 12L61 13L62 13L62 14L61 14L61 15L62 15L62 16L61 16L61 17L60 17L60 14L59 14L59 13L58 13L58 14L59 14L59 15L56 15L56 13L55 13L55 12L54 12L54 11L53 11L53 10L47 10L47 9L51 9L51 5L52 5L52 4L53 4L53 6L52 6L52 9L53 9L53 8L54 8L54 9L56 9L56 8L57 8L57 12L60 12L60 11L61 11L61 8L60 8L60 11L58 11L58 8L59 8L59 6L60 6L60 7L61 7L61 6L62 6L62 8L63 8L63 5L61 5L61 4L62 4L62 1L60 1L60 0L59 0L59 2L58 2L58 0L57 0L57 2L58 2L58 3L57 3L57 4L55 4L55 5L57 5L57 6L56 6L56 7L55 7L55 6L54 6L54 4L53 4L53 3L54 3L54 2L53 2L53 3L51 3L51 4L49 4L49 3L50 3L50 1L49 1L49 0L39 0L39 1L38 1L38 0L37 0L37 1L36 1L36 0L35 0L35 1L34 1L34 0L33 0L33 1L32 1L32 2L38 2L38 7L37 7L37 6L36 6L36 7L35 7L35 5L34 5L34 4L32 4L32 3L31 3L31 2L30 2L30 3L29 3L29 2L28 2L28 3L27 3L27 4L24 4L24 3L23 3L23 4L22 4L22 3L21 3L21 1L23 1L23 2L27 2L27 1L28 1L28 0L26 0L26 1L23 1L23 0L21 0L21 1L20 1L20 2L19 2L19 1L18 1L18 0L16 0L16 2L18 2L18 4L20 4L20 5L17 5L17 6L16 6L16 7L15 7L15 5L13 5L13 4L12 4L12 5L11 5L11 3L13 3L13 0L11 0L11 1L9 1L9 0ZM14 0L14 2L15 2L15 0ZM29 0L29 1L31 1L31 0ZM51 0L51 1L52 1L52 0ZM54 0L54 1L55 1L55 0ZM63 0L63 1L64 1L64 2L65 2L65 3L66 3L66 2L67 2L67 1L66 1L66 2L65 2L65 1L64 1L64 0ZM39 1L39 2L40 2L40 3L39 3L39 4L40 4L40 5L39 5L39 8L37 8L37 7L36 7L36 8L35 8L35 7L34 7L34 5L31 5L31 3L30 3L30 5L31 5L31 7L30 7L30 6L29 6L29 7L30 7L30 9L29 9L29 11L28 11L28 9L27 9L27 11L25 11L25 9L23 9L23 10L20 10L20 9L22 9L22 8L23 8L23 7L24 7L24 5L23 5L23 7L22 7L22 5L20 5L20 6L19 6L19 8L18 8L18 6L17 6L17 8L18 8L18 9L17 9L17 10L18 10L18 11L23 11L23 13L24 13L24 14L23 14L23 16L22 16L22 15L21 15L21 14L22 14L22 13L21 13L21 12L20 12L20 13L18 13L18 12L16 12L16 13L17 13L17 14L19 14L19 16L18 16L18 18L17 18L17 19L15 19L15 18L13 18L13 19L14 19L14 20L17 20L17 21L14 21L14 22L13 22L13 20L12 20L12 21L11 21L11 22L10 22L10 21L9 21L9 22L10 22L10 23L11 23L11 22L12 22L12 24L11 24L11 25L10 25L10 26L9 26L9 27L10 27L10 26L11 26L11 27L12 27L12 28L9 28L9 29L10 29L10 30L8 30L8 29L6 29L6 30L7 30L7 31L6 31L6 32L4 32L4 33L5 33L5 34L7 34L7 35L6 35L6 36L7 36L7 37L6 37L6 38L5 38L5 37L4 37L4 38L5 38L5 39L6 39L6 40L9 40L9 41L11 41L11 42L12 42L12 43L10 43L10 42L9 42L9 43L8 43L8 44L11 44L11 45L6 45L6 44L7 44L7 43L6 43L6 42L7 42L7 41L6 41L6 42L4 42L4 41L3 41L3 40L4 40L4 39L2 39L2 41L1 41L1 42L2 42L2 41L3 41L3 42L4 42L4 43L2 43L2 44L4 44L4 45L2 45L2 47L1 47L1 48L2 48L2 49L4 49L4 48L2 48L2 47L3 47L3 46L5 46L5 45L6 45L6 46L10 46L10 47L11 47L11 48L13 48L13 49L14 49L14 48L16 48L16 49L17 49L17 50L14 50L14 51L11 51L11 50L12 50L12 49L11 49L11 50L10 50L10 49L9 49L9 51L8 51L8 54L7 54L7 53L6 53L6 52L7 52L7 51L4 51L4 53L3 53L3 50L1 50L1 52L2 52L2 53L1 53L1 54L2 54L2 56L1 56L1 59L3 59L3 60L4 60L4 61L5 61L5 59L3 59L3 58L7 58L7 57L8 57L8 56L9 56L9 53L10 53L10 56L11 56L11 58L13 58L13 59L12 59L12 61L10 61L10 58L9 58L9 59L6 59L6 60L9 60L9 61L6 61L6 62L5 62L5 63L6 63L6 64L7 64L7 65L6 65L6 66L7 66L7 65L8 65L8 63L9 63L9 61L10 61L10 63L12 63L12 64L13 64L13 65L11 65L11 66L10 66L10 68L12 68L12 69L14 69L14 70L13 70L13 72L12 72L12 71L11 71L11 75L12 75L12 73L13 73L13 76L14 76L14 75L16 75L16 74L17 74L17 73L16 73L16 71L14 71L14 70L18 70L18 71L17 71L17 72L18 72L18 71L19 71L19 70L24 70L24 68L23 68L23 67L24 67L24 66L25 66L25 68L26 68L26 67L27 67L27 66L28 66L28 67L29 67L29 66L30 66L30 67L31 67L31 68L29 68L29 69L31 69L31 70L30 70L30 71L29 71L29 72L32 72L32 71L31 71L31 70L35 70L35 69L33 69L33 67L35 67L35 66L34 66L34 65L36 65L36 66L37 66L37 67L36 67L36 69L38 69L38 70L37 70L37 71L35 71L35 72L37 72L37 71L38 71L38 73L40 73L40 74L44 74L44 73L46 73L46 75L45 75L45 76L46 76L46 75L47 75L47 73L46 73L46 71L45 71L45 66L46 66L46 68L51 68L51 71L52 71L52 73L51 73L51 74L53 74L53 75L54 75L54 74L55 74L55 73L57 73L57 74L59 74L59 73L61 73L61 75L62 75L62 73L61 73L61 72L63 72L63 71L64 71L64 72L67 72L67 73L68 73L68 72L67 72L67 71L68 71L68 68L69 68L69 67L71 67L71 68L73 68L73 69L74 69L74 70L73 70L73 71L74 71L74 72L76 72L76 71L75 71L75 70L76 70L76 69L74 69L74 68L73 68L73 67L72 67L72 66L74 66L74 67L75 67L75 65L74 65L74 64L76 64L76 63L74 63L74 64L73 64L73 65L72 65L72 66L71 66L71 64L69 64L69 65L68 65L68 66L66 66L66 65L67 65L67 63L66 63L66 62L65 62L65 64L62 64L62 63L60 63L60 64L61 64L61 65L62 65L62 67L61 67L61 68L59 68L59 67L58 67L58 66L60 66L60 65L57 65L57 67L55 67L55 66L56 66L56 64L55 64L55 61L57 61L57 62L56 62L56 63L59 63L59 62L60 62L60 61L61 61L61 62L64 62L64 61L65 61L65 60L64 60L64 61L62 61L62 60L60 60L60 59L59 59L59 58L63 58L63 57L64 57L64 58L65 58L65 59L66 59L66 60L67 60L67 59L68 59L68 58L69 58L69 57L70 57L70 58L72 58L72 57L70 57L70 55L69 55L69 56L68 56L68 58L67 58L67 59L66 59L66 56L65 56L65 57L64 57L64 55L66 55L66 53L65 53L65 52L63 52L63 51L62 51L62 50L63 50L63 48L62 48L62 47L64 47L64 49L65 49L65 46L68 46L68 45L67 45L67 43L69 43L69 42L66 42L66 41L70 41L70 40L71 40L71 42L72 42L72 43L75 43L75 41L74 41L74 40L73 40L73 39L72 39L72 40L71 40L71 38L72 38L72 37L71 37L71 38L69 38L69 37L70 37L70 35L67 35L67 36L65 36L65 35L66 35L66 34L67 34L67 31L68 31L68 30L69 30L69 33L70 33L70 34L71 34L71 36L72 36L72 34L73 34L73 35L74 35L74 36L75 36L75 38L76 38L76 36L75 36L75 35L74 35L74 32L72 32L72 31L73 31L73 30L71 30L71 29L70 29L70 30L69 30L69 29L68 29L68 27L67 27L67 26L66 26L66 28L65 28L65 30L66 30L66 33L65 33L65 32L64 32L64 31L63 31L63 33L64 33L64 34L62 34L62 33L61 33L61 32L62 32L62 30L61 30L61 29L62 29L62 28L63 28L63 30L64 30L64 28L63 28L63 27L64 27L64 26L63 26L63 24L62 24L62 23L61 23L61 22L63 22L63 23L65 23L65 24L66 24L66 25L67 25L67 23L65 23L65 22L69 22L69 23L68 23L68 24L69 24L69 23L70 23L70 24L73 24L73 23L74 23L74 24L75 24L75 23L74 23L74 22L76 22L76 19L75 19L75 21L74 21L74 20L73 20L73 18L72 18L72 20L71 20L71 21L66 21L66 19L65 19L65 21L64 21L64 19L63 19L63 20L62 20L62 18L60 18L60 17L59 17L59 16L57 16L57 17L56 17L56 16L55 16L55 13L54 13L54 15L53 15L53 13L52 13L52 14L50 14L50 13L51 13L51 12L50 12L50 13L48 13L48 12L49 12L49 11L48 11L48 12L47 12L47 13L45 13L45 12L46 12L46 11L45 11L45 12L44 12L44 11L43 11L43 10L42 10L42 9L41 9L41 10L40 10L40 11L38 11L38 10L39 10L39 9L40 9L40 5L41 5L41 7L42 7L42 8L43 8L43 9L44 9L44 10L45 10L45 9L46 9L46 1L45 1L45 3L43 3L43 4L42 4L42 2L44 2L44 1L42 1L42 2L40 2L40 1ZM68 1L68 4L66 4L66 5L65 5L65 4L64 4L64 3L63 3L63 4L64 4L64 5L65 5L65 6L64 6L64 9L65 9L65 8L66 8L66 9L70 9L70 8L69 8L69 6L68 6L68 8L66 8L66 7L67 7L67 5L69 5L69 1ZM10 2L10 3L11 3L11 2ZM47 2L47 4L48 4L48 2ZM60 2L60 3L59 3L59 4L57 4L57 5L60 5L60 6L61 6L61 5L60 5L60 3L61 3L61 2ZM14 3L14 4L15 4L15 3ZM16 3L16 4L17 4L17 3ZM20 3L20 4L21 4L21 3ZM28 3L28 4L29 4L29 3ZM35 3L35 4L36 4L36 5L37 5L37 3ZM44 4L44 7L43 7L43 5L42 5L42 7L43 7L43 8L44 8L44 7L45 7L45 4ZM12 5L12 6L13 6L13 8L12 8L12 9L13 9L13 8L14 8L14 6L13 6L13 5ZM25 5L25 8L28 8L28 5ZM47 5L47 8L50 8L50 5ZM8 6L8 7L9 7L9 6ZM20 6L20 7L21 7L21 8L22 8L22 7L21 7L21 6ZM26 6L26 7L27 7L27 6ZM32 6L32 7L31 7L31 9L30 9L30 10L31 10L31 11L29 11L29 15L27 15L27 16L26 16L26 15L25 15L25 14L26 14L26 13L25 13L25 11L24 11L24 10L23 10L23 11L24 11L24 13L25 13L25 14L24 14L24 15L25 15L25 17L23 17L23 18L25 18L25 19L22 19L22 18L21 18L21 17L22 17L22 16L21 16L21 15L20 15L20 17L19 17L19 18L21 18L21 19L22 19L22 20L24 20L24 21L25 21L25 19L27 19L27 20L28 20L28 21L29 21L29 19L30 19L30 18L29 18L29 16L31 16L31 21L30 21L30 23L29 23L29 24L28 24L28 22L26 22L26 23L27 23L27 24L24 24L24 25L23 25L23 26L24 26L24 28L23 28L23 27L21 27L21 26L22 26L22 24L21 24L21 23L23 23L23 21L22 21L22 22L21 22L21 20L19 20L19 21L20 21L20 22L21 22L21 23L19 23L19 25L20 25L20 26L16 26L16 27L15 27L15 28L17 28L17 29L14 29L14 28L12 28L12 29L13 29L13 30L14 30L14 31L13 31L13 32L14 32L14 33L13 33L13 34L12 34L12 35L11 35L11 34L10 34L10 33L11 33L11 32L12 32L12 30L10 30L10 31L11 31L11 32L10 32L10 33L9 33L9 31L7 31L7 32L6 32L6 33L7 33L7 34L8 34L8 35L7 35L7 36L8 36L8 37L7 37L7 38L6 38L6 39L8 39L8 38L9 38L9 40L11 40L11 39L13 39L13 40L12 40L12 42L13 42L13 43L12 43L12 44L13 44L13 43L14 43L14 44L15 44L15 43L14 43L14 42L16 42L16 45L15 45L15 46L14 46L14 47L15 47L15 46L16 46L16 45L17 45L17 46L18 46L18 45L17 45L17 44L18 44L18 43L17 43L17 42L18 42L18 41L19 41L19 40L20 40L20 39L18 39L18 38L17 38L17 37L14 37L14 36L15 36L15 30L16 30L16 32L18 32L18 34L16 34L16 35L19 35L19 33L20 33L20 34L21 34L21 35L20 35L20 36L18 36L18 37L20 37L20 36L21 36L21 37L22 37L22 39L21 39L21 40L22 40L22 42L19 42L19 45L20 45L20 46L19 46L19 48L18 48L18 47L16 47L16 48L18 48L18 49L20 49L20 50L19 50L19 51L20 51L20 52L16 52L16 51L14 51L14 53L13 53L13 55L12 55L12 53L11 53L11 55L12 55L12 57L13 57L13 58L14 58L14 55L16 55L16 58L17 58L17 59L18 59L18 58L17 58L17 57L18 57L18 56L19 56L19 57L20 57L20 58L19 58L19 59L20 59L20 60L19 60L19 61L20 61L20 60L21 60L21 61L22 61L22 62L21 62L21 63L20 63L20 65L19 65L19 66L18 66L18 65L17 65L17 62L18 62L18 63L19 63L19 62L18 62L18 61L16 61L16 59L15 59L15 61L14 61L14 59L13 59L13 61L14 61L14 62L12 62L12 63L13 63L13 64L15 64L15 63L14 63L14 62L15 62L15 61L16 61L16 65L14 65L14 66L15 66L15 67L13 67L13 66L11 66L11 67L13 67L13 68L16 68L16 69L17 69L17 68L18 68L18 67L19 67L19 66L21 66L21 67L22 67L22 66L21 66L21 65L22 65L22 64L23 64L23 65L26 65L26 64L27 64L27 65L28 65L28 66L29 66L29 65L31 65L31 67L33 67L33 65L34 65L34 61L32 61L32 60L33 60L33 58L32 58L32 55L31 55L31 57L30 57L30 54L29 54L29 57L28 57L28 54L27 54L27 53L28 53L28 52L27 52L27 53L26 53L26 52L25 52L25 51L29 51L29 47L30 47L30 46L31 46L31 45L32 45L32 43L30 43L30 42L29 42L29 41L28 41L28 42L26 42L26 41L25 41L25 40L24 40L24 39L26 39L26 40L27 40L27 39L26 39L26 38L28 38L28 39L30 39L30 40L32 40L32 41L33 41L33 44L34 44L34 45L33 45L33 46L32 46L32 47L31 47L31 49L32 49L32 48L33 48L33 47L35 47L35 49L36 49L36 50L35 50L35 52L37 52L37 53L38 53L38 52L37 52L37 51L38 51L38 50L39 50L39 56L38 56L38 57L37 57L37 59L36 59L36 58L34 58L34 60L35 60L35 61L36 61L36 62L35 62L35 64L36 64L36 62L37 62L37 63L38 63L38 64L40 64L40 60L41 60L41 61L43 61L43 60L41 60L41 59L42 59L42 58L44 58L44 60L45 60L45 61L46 61L46 62L47 62L47 63L48 63L48 62L49 62L49 63L50 63L50 64L49 64L49 65L48 65L48 64L47 64L47 65L46 65L46 66L47 66L47 65L48 65L48 66L49 66L49 65L50 65L50 67L51 67L51 68L52 68L52 69L53 69L53 68L55 68L55 69L54 69L54 71L53 71L53 74L54 74L54 72L55 72L55 70L56 70L56 69L57 69L57 70L58 70L58 71L57 71L57 72L58 72L58 71L59 71L59 72L61 72L61 69L59 69L59 68L58 68L58 67L57 67L57 68L55 68L55 67L54 67L54 66L55 66L55 64L53 64L53 63L54 63L54 61L55 61L55 60L58 60L58 62L59 62L59 60L58 60L58 57L59 57L59 56L58 56L58 55L60 55L60 56L61 56L61 57L63 57L63 54L65 54L65 53L62 53L62 51L61 51L61 49L59 49L59 50L57 50L57 49L58 49L58 48L61 48L61 46L60 46L60 45L56 45L56 44L54 44L54 42L53 42L53 44L52 44L52 42L51 42L51 43L49 43L49 42L50 42L50 41L51 41L51 40L50 40L50 39L51 39L51 38L49 38L49 37L48 37L48 38L47 38L47 37L46 37L46 39L48 39L48 40L47 40L47 41L48 41L48 42L47 42L47 44L45 44L45 43L44 43L44 42L43 42L43 43L44 43L44 44L45 44L45 45L44 45L44 46L46 46L46 47L45 47L45 48L46 48L46 49L44 49L44 48L42 48L42 47L43 47L43 44L42 44L42 42L38 42L38 41L40 41L40 40L39 40L39 39L40 39L40 36L41 36L41 39L42 39L42 40L41 40L41 41L42 41L42 40L43 40L43 41L45 41L45 42L46 42L46 41L45 41L45 39L44 39L44 38L45 38L45 37L44 37L44 38L42 38L42 37L43 37L43 36L42 36L42 34L43 34L43 35L44 35L44 36L46 36L46 34L47 34L47 35L49 35L49 31L48 31L48 30L50 30L50 31L52 31L52 30L53 30L53 29L51 29L51 28L56 28L56 27L58 27L58 28L57 28L57 29L58 29L58 28L59 28L59 30L55 30L55 29L54 29L54 30L55 30L55 33L54 33L54 36L52 36L52 35L53 35L53 33L51 33L51 32L50 32L50 34L51 34L51 35L50 35L50 36L51 36L51 37L52 37L52 40L53 40L53 41L55 41L55 40L57 40L57 38L55 38L55 40L53 40L53 39L54 39L54 37L55 37L55 36L56 36L56 37L58 37L58 36L57 36L57 35L58 35L58 34L59 34L59 33L56 33L56 32L59 32L59 30L60 30L60 29L61 29L61 28L62 28L62 27L63 27L63 26L62 26L62 27L59 27L59 26L61 26L61 25L62 25L62 24L61 24L61 23L60 23L60 22L59 22L59 23L57 23L57 25L58 25L58 26L56 26L56 25L55 25L55 23L54 23L54 25L53 25L53 23L52 23L52 22L53 22L53 21L54 21L54 20L55 20L55 21L57 21L57 22L58 22L58 21L59 21L59 20L60 20L60 21L61 21L61 19L59 19L59 17L58 17L58 19L59 19L59 20L58 20L58 21L57 21L57 20L55 20L55 19L54 19L54 18L50 18L50 17L49 17L49 15L48 15L48 16L47 16L47 14L45 14L45 15L44 15L44 16L43 16L43 14L42 14L42 13L40 13L40 14L41 14L41 15L42 15L42 16L41 16L41 17L40 17L40 15L38 15L38 14L39 14L39 13L38 13L38 12L37 12L37 10L38 10L38 9L35 9L35 10L32 10L32 7L33 7L33 6ZM48 6L48 7L49 7L49 6ZM53 6L53 7L54 7L54 6ZM57 6L57 8L58 8L58 6ZM65 6L65 7L66 7L66 6ZM0 8L0 9L4 9L4 8ZM6 8L6 9L7 9L7 8ZM15 8L15 9L16 9L16 8ZM33 8L33 9L34 9L34 8ZM62 9L62 10L63 10L63 9ZM14 10L14 11L15 11L15 10ZM35 10L35 12L34 12L34 11L33 11L33 12L31 12L31 13L30 13L30 14L31 14L31 16L32 16L32 17L33 17L33 18L34 18L34 20L35 20L35 18L34 18L34 16L33 16L33 13L34 13L34 15L35 15L35 17L36 17L36 18L37 18L37 15L36 15L36 14L35 14L35 12L36 12L36 10ZM41 10L41 11L40 11L40 12L41 12L41 11L42 11L42 12L43 12L43 11L42 11L42 10ZM27 11L27 14L28 14L28 11ZM52 11L52 12L53 12L53 11ZM74 11L74 12L75 12L75 11ZM3 13L3 14L4 14L4 13ZM6 13L6 14L7 14L7 13ZM10 13L10 14L11 14L11 13ZM16 15L16 16L17 16L17 15ZM52 15L52 17L54 17L54 16L53 16L53 15ZM67 15L67 17L66 17L66 16L63 16L63 17L65 17L65 18L67 18L67 17L68 17L68 18L69 18L69 17L70 17L70 19L71 19L71 17L72 17L72 16L71 16L71 15ZM0 16L0 17L1 17L1 16ZM14 16L14 17L15 17L15 16ZM27 16L27 17L28 17L28 16ZM45 16L45 17L44 17L44 19L43 19L43 17L41 17L41 18L40 18L40 17L38 17L38 18L39 18L39 20L41 20L41 21L42 21L42 19L43 19L43 23L42 23L42 24L44 24L44 25L41 25L41 23L40 23L40 22L39 22L39 21L37 21L37 20L38 20L38 19L36 19L36 22L37 22L37 23L35 23L35 21L33 21L33 19L32 19L32 21L33 21L33 22L31 22L31 23L30 23L30 24L29 24L29 26L31 26L31 27L29 27L29 29L28 29L28 31L27 31L27 29L26 29L26 31L24 31L24 30L25 30L25 29L24 29L24 30L23 30L23 29L22 29L22 28L21 28L21 29L20 29L20 31L19 31L19 30L17 30L17 31L18 31L18 32L20 32L20 31L21 31L21 34L23 34L23 36L22 36L22 35L21 35L21 36L22 36L22 37L23 37L23 39L22 39L22 40L23 40L23 42L25 42L25 41L24 41L24 40L23 40L23 39L24 39L24 36L25 36L25 38L26 38L26 36L27 36L27 37L28 37L28 38L29 38L29 37L30 37L30 38L31 38L31 39L32 39L32 40L33 40L33 41L34 41L34 44L35 44L35 45L34 45L34 46L35 46L35 47L36 47L36 48L37 48L37 47L36 47L36 45L37 45L37 46L38 46L38 48L39 48L39 50L40 50L40 51L41 51L41 50L40 50L40 49L42 49L42 50L43 50L43 49L42 49L42 48L40 48L40 47L39 47L39 46L41 46L41 45L40 45L40 44L41 44L41 43L39 43L39 44L38 44L38 43L37 43L37 41L38 41L38 39L39 39L39 38L38 38L38 39L37 39L37 37L34 37L34 38L32 38L32 37L33 37L33 36L34 36L34 35L33 35L33 36L32 36L32 37L30 37L30 35L32 35L32 34L35 34L35 36L36 36L36 35L37 35L37 36L38 36L38 37L39 37L39 36L40 36L40 35L41 35L41 34L42 34L42 33L43 33L43 34L45 34L45 33L46 33L46 31L47 31L47 30L48 30L48 29L47 29L47 30L46 30L46 29L43 29L43 28L44 28L44 27L45 27L45 23L44 23L44 21L46 21L46 22L47 22L47 21L48 21L48 22L49 22L49 23L48 23L48 24L49 24L49 23L50 23L50 24L51 24L51 21L53 21L53 19L52 19L52 20L51 20L51 21L49 21L49 20L50 20L50 19L49 19L49 18L48 18L48 17L47 17L47 16ZM70 16L70 17L71 17L71 16ZM73 16L73 17L74 17L74 18L75 18L75 17L74 17L74 16ZM46 17L46 21L47 21L47 17ZM3 18L3 19L4 19L4 18ZM41 18L41 19L42 19L42 18ZM48 19L48 20L49 20L49 19ZM67 19L67 20L68 20L68 19ZM73 21L73 22L72 22L72 23L73 23L73 22L74 22L74 21ZM15 22L15 23L14 23L14 24L12 24L12 25L11 25L11 26L12 26L12 27L13 27L13 26L12 26L12 25L14 25L14 26L15 26L15 24L16 24L16 22ZM17 22L17 24L18 24L18 22ZM24 22L24 23L25 23L25 22ZM33 22L33 23L31 23L31 24L30 24L30 25L31 25L31 26L33 26L33 27L34 27L34 29L33 29L33 28L30 28L30 29L31 29L31 31L30 31L30 30L29 30L29 31L30 31L30 33L29 33L29 32L27 32L27 31L26 31L26 32L23 32L23 30L22 30L22 29L21 29L21 30L22 30L22 33L23 33L23 34L24 34L24 35L26 35L26 32L27 32L27 33L28 33L28 34L29 34L29 35L30 35L30 33L32 33L32 31L33 31L33 33L35 33L35 32L36 32L36 31L37 31L37 33L36 33L36 34L37 34L37 35L38 35L38 36L39 36L39 35L40 35L40 33L42 33L42 32L43 32L43 31L42 31L42 29L41 29L41 31L40 31L40 32L39 32L39 35L38 35L38 34L37 34L37 33L38 33L38 31L37 31L37 29L38 29L38 28L39 28L39 30L40 30L40 28L41 28L41 27L42 27L42 28L43 28L43 27L44 27L44 26L43 26L43 27L42 27L42 26L39 26L39 25L40 25L40 23L39 23L39 24L38 24L38 25L37 25L37 24L33 24L33 23L34 23L34 22ZM31 24L31 25L33 25L33 26L34 26L34 27L37 27L37 28L35 28L35 30L33 30L33 31L34 31L34 32L35 32L35 31L36 31L36 29L37 29L37 28L38 28L38 27L39 27L39 26L38 26L38 27L37 27L37 26L35 26L35 25L33 25L33 24ZM59 24L59 25L60 25L60 24ZM5 25L5 28L8 28L8 25ZM25 25L25 28L28 28L28 25ZM47 25L47 28L50 28L50 25ZM52 25L52 26L51 26L51 27L54 27L54 26L55 26L55 25L54 25L54 26L53 26L53 25ZM69 25L69 28L72 28L72 25ZM6 26L6 27L7 27L7 26ZM26 26L26 27L27 27L27 26ZM48 26L48 27L49 27L49 26ZM70 26L70 27L71 27L71 26ZM75 26L75 29L77 29L77 26ZM17 27L17 28L20 28L20 27ZM3 28L3 29L4 29L4 30L5 30L5 29L4 29L4 28ZM66 28L66 30L67 30L67 28ZM0 30L0 31L2 31L2 30ZM44 30L44 31L45 31L45 30ZM41 31L41 32L42 32L42 31ZM53 31L53 32L54 32L54 31ZM60 31L60 32L61 32L61 31ZM75 31L75 32L76 32L76 31ZM7 32L7 33L8 33L8 32ZM47 32L47 34L48 34L48 32ZM70 32L70 33L71 33L71 32ZM75 33L75 34L76 34L76 33ZM9 34L9 35L8 35L8 36L9 36L9 35L10 35L10 34ZM55 34L55 35L57 35L57 34ZM4 35L4 36L5 36L5 35ZM12 35L12 36L10 36L10 37L9 37L9 38L10 38L10 39L11 39L11 38L12 38L12 37L13 37L13 39L14 39L14 40L13 40L13 41L14 41L14 40L15 40L15 41L16 41L16 42L17 42L17 40L18 40L18 39L17 39L17 38L16 38L16 39L17 39L17 40L15 40L15 38L14 38L14 37L13 37L13 35ZM60 35L60 37L61 37L61 36L62 36L62 38L60 38L60 39L59 39L59 41L60 41L60 43L59 43L59 42L58 42L58 43L57 43L57 44L58 44L58 43L59 43L59 44L62 44L62 43L64 43L64 44L66 44L66 43L65 43L65 40L68 40L68 37L69 37L69 36L67 36L67 37L65 37L65 36L63 36L63 35ZM10 37L10 38L11 38L11 37ZM64 37L64 39L67 39L67 38L65 38L65 37ZM35 38L35 39L34 39L34 41L35 41L35 39L36 39L36 38ZM48 38L48 39L49 39L49 38ZM60 39L60 40L61 40L61 41L63 41L63 42L64 42L64 40L63 40L63 39ZM48 40L48 41L50 41L50 40ZM56 41L56 42L55 42L55 43L56 43L56 42L57 42L57 41ZM72 41L72 42L73 42L73 41ZM28 42L28 45L29 45L29 42ZM61 42L61 43L62 43L62 42ZM4 43L4 44L6 44L6 43ZM22 43L22 44L21 44L21 46L23 46L23 45L22 45L22 44L24 44L24 45L25 45L25 46L27 46L27 44L25 44L25 43ZM36 43L36 44L37 44L37 45L38 45L38 44L37 44L37 43ZM48 43L48 44L49 44L49 43ZM70 43L70 44L69 44L69 45L70 45L70 44L71 44L71 43ZM51 44L51 45L52 45L52 44ZM75 44L75 45L76 45L76 44ZM11 45L11 46L12 46L12 45ZM47 45L47 46L50 46L50 45ZM53 45L53 47L52 47L52 46L51 46L51 47L52 47L52 48L53 48L53 49L51 49L51 50L52 50L52 51L53 51L53 54L52 54L52 52L50 52L50 51L49 51L49 52L48 52L48 54L47 54L47 57L48 57L48 55L49 55L49 56L51 56L51 58L50 58L50 57L49 57L49 59L50 59L50 61L49 61L49 60L47 60L47 61L49 61L49 62L51 62L51 64L50 64L50 65L52 65L52 63L53 63L53 62L52 62L52 61L54 61L54 60L55 60L55 59L56 59L56 58L57 58L57 57L58 57L58 56L57 56L57 57L56 57L56 58L55 58L55 59L54 59L54 56L55 56L55 55L56 55L56 54L59 54L59 53L56 53L56 51L57 51L57 50L56 50L56 51L55 51L55 52L54 52L54 50L53 50L53 49L54 49L54 48L53 48L53 47L55 47L55 49L56 49L56 48L57 48L57 47L60 47L60 46L56 46L56 45L55 45L55 46L54 46L54 45ZM62 45L62 46L65 46L65 45ZM5 47L5 50L8 50L8 47ZM25 47L25 50L28 50L28 47ZM47 47L47 50L50 50L50 47ZM66 47L66 48L67 48L67 47ZM69 47L69 50L72 50L72 47ZM6 48L6 49L7 49L7 48ZM23 48L23 50L24 50L24 48ZM26 48L26 49L27 49L27 48ZM48 48L48 49L49 49L49 48ZM70 48L70 49L71 49L71 48ZM21 49L21 52L20 52L20 53L22 53L22 54L21 54L21 55L22 55L22 56L21 56L21 58L20 58L20 59L21 59L21 60L22 60L22 59L24 59L24 58L22 58L22 56L23 56L23 57L25 57L25 58L26 58L26 61L25 61L25 60L23 60L23 61L25 61L25 64L26 64L26 63L27 63L27 62L28 62L28 64L30 64L30 63L29 63L29 61L30 61L30 62L31 62L31 64L32 64L32 65L33 65L33 62L31 62L31 60L32 60L32 58L30 58L30 57L29 57L29 61L28 61L28 59L27 59L27 58L28 58L28 57L27 57L27 58L26 58L26 56L23 56L23 55L25 55L25 54L26 54L26 55L27 55L27 54L26 54L26 53L25 53L25 52L24 52L24 53L25 53L25 54L23 54L23 53L22 53L22 52L23 52L23 51L22 51L22 49ZM76 49L76 50L75 50L75 51L76 51L76 50L77 50L77 49ZM30 50L30 51L31 51L31 50ZM33 50L33 51L34 51L34 50ZM44 50L44 51L43 51L43 52L44 52L44 51L45 51L45 53L42 53L42 54L40 54L40 55L44 55L44 56L43 56L43 57L45 57L45 56L46 56L46 55L45 55L45 53L47 53L47 52L46 52L46 50ZM59 50L59 51L60 51L60 50ZM65 50L65 51L66 51L66 50ZM9 51L9 52L10 52L10 51ZM30 52L30 53L31 53L31 54L33 54L33 56L34 56L34 57L36 57L36 55L37 55L37 54L36 54L36 53L33 53L33 52ZM40 52L40 53L41 53L41 52ZM49 52L49 53L50 53L50 54L51 54L51 55L52 55L52 54L51 54L51 53L50 53L50 52ZM60 52L60 54L61 54L61 56L62 56L62 54L61 54L61 52ZM4 53L4 54L3 54L3 55L5 55L5 57L7 57L7 56L8 56L8 55L7 55L7 54L6 54L6 55L5 55L5 53ZM14 53L14 54L16 54L16 55L17 55L17 56L18 56L18 55L19 55L19 56L20 56L20 54L18 54L18 55L17 55L17 54L16 54L16 53ZM54 53L54 54L55 54L55 53ZM22 54L22 55L23 55L23 54ZM34 54L34 56L35 56L35 55L36 55L36 54ZM6 55L6 56L7 56L7 55ZM53 55L53 56L54 56L54 55ZM72 55L72 56L73 56L73 55ZM41 56L41 57L38 57L38 58L40 58L40 59L38 59L38 61L39 61L39 60L40 60L40 59L41 59L41 57L42 57L42 56ZM45 58L45 59L46 59L46 58ZM30 59L30 60L31 60L31 59ZM51 59L51 61L52 61L52 59ZM75 60L75 62L76 62L76 60ZM1 61L1 62L2 62L2 61ZM26 61L26 62L27 62L27 61ZM6 62L6 63L7 63L7 62ZM22 62L22 63L21 63L21 64L22 64L22 63L23 63L23 64L24 64L24 62ZM38 62L38 63L39 63L39 62ZM41 62L41 63L42 63L42 65L43 65L43 66L42 66L42 68L40 68L40 69L39 69L39 68L38 68L38 69L39 69L39 70L38 70L38 71L39 71L39 70L40 70L40 72L41 72L41 73L44 73L44 71L43 71L43 69L44 69L44 67L43 67L43 66L44 66L44 65L45 65L45 62L43 62L43 63L42 63L42 62ZM43 63L43 64L44 64L44 63ZM16 65L16 67L18 67L18 66L17 66L17 65ZM39 65L39 66L40 66L40 67L41 67L41 65ZM53 65L53 66L54 66L54 65ZM64 65L64 66L65 66L65 65ZM69 65L69 66L68 66L68 67L69 67L69 66L70 66L70 65ZM52 67L52 68L53 68L53 67ZM64 67L64 70L65 70L65 71L67 71L67 70L65 70L65 67ZM19 68L19 69L21 69L21 68ZM22 68L22 69L23 69L23 68ZM31 68L31 69L32 69L32 68ZM62 68L62 70L63 70L63 68ZM25 69L25 72L28 72L28 69ZM47 69L47 72L50 72L50 69ZM58 69L58 70L59 70L59 69ZM69 69L69 72L72 72L72 69ZM26 70L26 71L27 71L27 70ZM48 70L48 71L49 71L49 70ZM70 70L70 71L71 71L71 70ZM21 71L21 72L22 72L22 73L24 73L24 72L22 72L22 71ZM14 72L14 73L15 73L15 72ZM19 73L19 74L20 74L20 73ZM27 73L27 74L28 74L28 73ZM63 73L63 74L65 74L65 75L64 75L64 76L65 76L65 75L66 75L66 74L65 74L65 73ZM69 73L69 75L68 75L68 74L67 74L67 76L69 76L69 75L70 75L70 76L71 76L71 73ZM72 74L72 75L73 75L73 74ZM42 75L42 76L44 76L44 75ZM57 75L57 76L58 76L58 75ZM0 0L0 7L7 7L7 0ZM1 1L1 6L6 6L6 1ZM2 2L2 5L5 5L5 2ZM70 0L70 7L77 7L77 0ZM71 1L71 6L76 6L76 1ZM72 2L72 5L75 5L75 2ZM0 70L0 77L7 77L7 70ZM1 71L1 76L6 76L6 71ZM2 72L2 75L5 75L5 72Z" fill="#000000"/></g></g></svg>
