<?xml version="1.0" encoding="UTF-8"?>
<svg xmlns="http://www.w3.org/2000/svg" version="1.1" width="100" height="100" viewBox="0 0 100 100"><rect x="0" y="0" width="100" height="100" fill="#ffffff"/><g transform="scale(1.449)"><g transform="translate(0,0)"><path fill-rule="evenodd" d="M8 0L8 1L9 1L9 4L12 4L12 5L13 5L13 6L12 6L12 7L13 7L13 9L12 9L12 10L11 10L11 9L10 9L10 8L11 8L11 5L9 5L9 6L8 6L8 8L9 8L9 9L8 9L8 10L9 10L9 9L10 9L10 10L11 10L11 11L9 11L9 12L6 12L6 13L4 13L4 14L3 14L3 12L2 12L2 11L3 11L3 9L4 9L4 10L6 10L6 11L7 11L7 10L6 10L6 9L7 9L7 8L6 8L6 9L5 9L5 8L3 8L3 9L2 9L2 8L0 8L0 11L1 11L1 12L2 12L2 14L0 14L0 17L3 17L3 18L0 18L0 21L1 21L1 22L0 22L0 25L2 25L2 27L3 27L3 30L6 30L6 31L5 31L5 32L4 32L4 33L3 33L3 32L2 32L2 31L0 31L0 34L1 34L1 33L2 33L2 34L4 34L4 36L3 36L3 35L0 35L0 37L1 37L1 36L3 36L3 38L4 38L4 39L7 39L7 40L4 40L4 41L5 41L5 42L4 42L4 43L3 43L3 45L2 45L2 43L1 43L1 41L3 41L3 40L2 40L2 39L1 39L1 41L0 41L0 47L1 47L1 45L2 45L2 47L3 47L3 48L0 48L0 50L1 50L1 51L0 51L0 53L1 53L1 52L2 52L2 53L4 53L4 52L3 52L3 51L5 51L5 52L6 52L6 53L5 53L5 54L4 54L4 55L7 55L7 56L6 56L6 57L7 57L7 56L9 56L9 58L10 58L10 59L11 59L11 60L9 60L9 61L8 61L8 62L10 62L10 61L11 61L11 62L13 62L13 63L11 63L11 64L12 64L12 65L11 65L11 66L12 66L12 67L13 67L13 68L11 68L11 67L8 67L8 69L10 69L10 68L11 68L11 69L13 69L13 68L14 68L14 69L15 69L15 67L14 67L14 64L15 64L15 66L16 66L16 67L18 67L18 69L19 69L19 67L20 67L20 68L22 68L22 69L23 69L23 68L22 68L22 67L23 67L23 66L22 66L22 67L21 67L21 66L19 66L19 62L18 62L18 63L17 63L17 65L16 65L16 63L15 63L15 62L16 62L16 59L19 59L19 60L18 60L18 61L20 61L20 65L22 65L22 64L23 64L23 65L24 65L24 69L26 69L26 68L27 68L27 67L26 67L26 68L25 68L25 65L27 65L27 66L28 66L28 67L29 67L29 68L28 68L28 69L31 69L31 68L33 68L33 69L38 69L38 63L37 63L37 61L38 61L38 62L40 62L40 61L41 61L41 60L42 60L42 59L41 59L41 58L44 58L44 59L43 59L43 61L42 61L42 63L41 63L41 65L39 65L39 66L40 66L40 67L41 67L41 66L43 66L43 68L44 68L44 67L48 67L48 68L47 68L47 69L49 69L49 68L50 68L50 69L53 69L53 66L55 66L55 67L56 67L56 66L55 66L55 65L57 65L57 67L58 67L58 68L59 68L59 69L61 69L61 68L62 68L62 69L63 69L63 68L64 68L64 69L65 69L65 68L69 68L69 66L66 66L66 65L65 65L65 62L66 62L66 61L68 61L68 60L69 60L69 56L68 56L68 55L69 55L69 54L68 54L68 55L66 55L66 54L65 54L65 53L66 53L66 52L68 52L68 53L69 53L69 50L68 50L68 49L69 49L69 46L68 46L68 45L69 45L69 42L68 42L68 44L67 44L67 43L64 43L64 44L66 44L66 45L67 45L67 46L66 46L66 48L65 48L65 47L64 47L64 46L65 46L65 45L64 45L64 46L63 46L63 42L62 42L62 40L64 40L64 42L65 42L65 41L66 41L66 42L67 42L67 40L68 40L68 41L69 41L69 39L64 39L64 37L66 37L66 38L69 38L69 36L67 36L67 35L69 35L69 33L68 33L68 34L67 34L67 31L65 31L65 29L63 29L63 30L62 30L62 26L63 26L63 27L64 27L64 26L65 26L65 28L66 28L66 30L68 30L68 32L69 32L69 29L68 29L68 28L67 28L67 27L66 27L66 26L65 26L65 22L66 22L66 25L67 25L67 23L69 23L69 21L68 21L68 19L69 19L69 18L68 18L68 19L67 19L67 17L69 17L69 16L67 16L67 15L68 15L68 13L69 13L69 12L68 12L68 13L65 13L65 12L67 12L67 11L69 11L69 8L68 8L68 10L67 10L67 9L66 9L66 10L65 10L65 9L64 9L64 10L63 10L63 8L62 8L62 9L61 9L61 8L59 8L59 9L58 9L58 8L57 8L57 10L58 10L58 12L59 12L59 14L58 14L58 13L57 13L57 11L56 11L56 10L55 10L55 9L56 9L56 8L55 8L55 6L54 6L54 10L53 10L53 5L52 5L52 9L49 9L49 8L51 8L51 6L50 6L50 5L51 5L51 4L54 4L54 5L55 5L55 2L53 2L53 3L51 3L51 2L49 2L49 3L48 3L48 2L46 2L46 3L45 3L45 0L42 0L42 1L41 1L41 0L37 0L37 1L36 1L36 0L35 0L35 1L34 1L34 4L31 4L31 3L33 3L33 2L31 2L31 1L33 1L33 0L31 0L31 1L29 1L29 0L28 0L28 1L29 1L29 3L30 3L30 4L31 4L31 5L32 5L32 8L31 8L31 6L30 6L30 5L28 5L28 3L27 3L27 1L26 1L26 0L24 0L24 1L23 1L23 2L22 2L22 0L18 0L18 1L16 1L16 0L15 0L15 1L14 1L14 0L13 0L13 1L12 1L12 0L11 0L11 3L10 3L10 0ZM46 0L46 1L48 1L48 0ZM49 0L49 1L53 1L53 0ZM54 0L54 1L56 1L56 0ZM58 0L58 1L57 1L57 2L56 2L56 4L57 4L57 6L56 6L56 7L57 7L57 6L58 6L58 7L59 7L59 4L58 4L58 3L59 3L59 2L58 2L58 1L61 1L61 0ZM19 1L19 2L20 2L20 4L21 4L21 3L22 3L22 2L20 2L20 1ZM24 1L24 2L26 2L26 1ZM35 1L35 3L37 3L37 4L38 4L38 3L39 3L39 2L40 2L40 1L37 1L37 2L36 2L36 1ZM12 2L12 3L14 3L14 4L13 4L13 5L14 5L14 4L15 4L15 7L14 7L14 6L13 6L13 7L14 7L14 12L9 12L9 13L8 13L8 16L7 16L7 15L6 15L6 14L7 14L7 13L6 13L6 14L4 14L4 15L1 15L1 16L3 16L3 17L4 17L4 18L3 18L3 20L1 20L1 21L2 21L2 22L1 22L1 23L2 23L2 22L4 22L4 25L3 25L3 26L4 26L4 27L6 27L6 28L4 28L4 29L6 29L6 30L7 30L7 29L6 29L6 28L7 28L7 27L9 27L9 30L8 30L8 31L6 31L6 32L8 32L8 31L9 31L9 34L10 34L10 35L9 35L9 36L11 36L11 37L12 37L12 38L13 38L13 39L15 39L15 37L14 37L14 36L15 36L15 34L16 34L16 38L19 38L19 37L21 37L21 38L20 38L20 40L19 40L19 41L20 41L20 42L17 42L17 43L16 43L16 41L18 41L18 40L13 40L13 41L12 41L12 40L11 40L11 38L10 38L10 37L8 37L8 38L7 38L7 37L6 37L6 38L7 38L7 39L8 39L8 40L7 40L7 41L6 41L6 42L5 42L5 43L6 43L6 44L7 44L7 45L6 45L6 46L7 46L7 47L5 47L5 44L4 44L4 45L3 45L3 46L4 46L4 48L3 48L3 49L4 49L4 48L7 48L7 47L8 47L8 49L5 49L5 50L8 50L8 49L9 49L9 48L12 48L12 49L10 49L10 50L13 50L13 53L12 53L12 52L11 52L11 53L10 53L10 52L9 52L9 51L6 51L6 52L9 52L9 53L6 53L6 54L8 54L8 55L10 55L10 57L11 57L11 56L12 56L12 55L13 55L13 57L12 57L12 58L11 58L11 59L12 59L12 58L13 58L13 60L14 60L14 59L15 59L15 58L13 58L13 57L14 57L14 55L15 55L15 56L16 56L16 55L19 55L19 53L20 53L20 55L21 55L21 58L19 58L19 59L21 59L21 61L22 61L22 62L21 62L21 64L22 64L22 63L23 63L23 62L24 62L24 61L25 61L25 60L26 60L26 59L25 59L25 60L24 60L24 58L22 58L22 55L21 55L21 53L23 53L23 54L24 54L24 55L23 55L23 57L24 57L24 56L25 56L25 58L27 58L27 59L29 59L29 60L28 60L28 62L29 62L29 66L31 66L31 67L32 67L32 66L33 66L33 67L34 67L34 68L36 68L36 67L37 67L37 66L36 66L36 65L35 65L35 67L34 67L34 66L33 66L33 65L32 65L32 64L31 64L31 63L32 63L32 61L30 61L30 60L31 60L31 59L32 59L32 60L33 60L33 59L32 59L32 58L35 58L35 59L34 59L34 60L36 60L36 59L37 59L37 58L38 58L38 59L39 59L39 60L38 60L38 61L39 61L39 60L40 60L40 59L39 59L39 58L38 58L38 57L40 57L40 58L41 58L41 57L40 57L40 56L41 56L41 55L40 55L40 54L39 54L39 53L42 53L42 52L43 52L43 51L42 51L42 50L41 50L41 49L40 49L40 48L41 48L41 47L42 47L42 49L43 49L43 50L44 50L44 49L43 49L43 47L46 47L46 45L45 45L45 44L47 44L47 46L49 46L49 47L48 47L48 48L45 48L45 51L44 51L44 52L45 52L45 53L44 53L44 54L45 54L45 56L43 56L43 55L42 55L42 56L43 56L43 57L44 57L44 58L45 58L45 60L46 60L46 61L43 61L43 62L44 62L44 64L43 64L43 63L42 63L42 65L43 65L43 66L45 66L45 65L46 65L46 64L47 64L47 66L49 66L49 67L50 67L50 68L51 68L51 67L52 67L52 66L51 66L51 65L53 65L53 64L54 64L54 65L55 65L55 64L57 64L57 65L58 65L58 64L59 64L59 65L60 65L60 64L59 64L59 63L60 63L60 62L59 62L59 60L58 60L58 59L57 59L57 56L58 56L58 57L59 57L59 58L63 58L63 57L60 57L60 56L61 56L61 55L60 55L60 53L59 53L59 55L57 55L57 54L56 54L56 52L58 52L58 51L56 51L56 52L55 52L55 50L56 50L56 47L55 47L55 46L54 46L54 44L55 44L55 45L58 45L58 44L59 44L59 45L60 45L60 44L61 44L61 45L62 45L62 44L61 44L61 40L62 40L62 39L63 39L63 37L62 37L62 38L61 38L61 37L59 37L59 35L60 35L60 34L58 34L58 36L57 36L57 37L58 37L58 38L57 38L57 39L56 39L56 40L55 40L55 38L56 38L56 37L55 37L55 36L54 36L54 35L55 35L55 34L54 34L54 33L60 33L60 32L61 32L61 31L62 31L62 30L61 30L61 31L60 31L60 32L59 32L59 31L56 31L56 30L57 30L57 29L56 29L56 28L58 28L58 29L61 29L61 28L59 28L59 27L61 27L61 26L62 26L62 25L64 25L64 23L63 23L63 24L61 24L61 23L62 23L62 21L64 21L64 22L65 22L65 21L67 21L67 20L65 20L65 19L64 19L64 20L63 20L63 19L62 19L62 18L63 18L63 17L64 17L64 18L65 18L65 16L64 16L64 15L65 15L65 14L64 14L64 12L65 12L65 11L62 11L62 10L61 10L61 12L63 12L63 14L62 14L62 13L61 13L61 14L60 14L60 15L59 15L59 18L60 18L60 17L61 17L61 16L62 16L62 15L63 15L63 17L62 17L62 18L61 18L61 19L58 19L58 18L57 18L57 17L56 17L56 18L57 18L57 19L55 19L55 18L53 18L53 17L54 17L54 16L58 16L58 15L56 15L56 12L55 12L55 14L54 14L54 13L52 13L52 14L51 14L51 15L52 15L52 17L51 17L51 16L50 16L50 15L49 15L49 14L50 14L50 13L51 13L51 12L52 12L52 10L49 10L49 9L48 9L48 10L47 10L47 11L46 11L46 9L45 9L45 8L44 8L44 5L46 5L46 6L45 6L45 7L46 7L46 8L47 8L47 7L48 7L48 3L46 3L46 4L44 4L44 2L41 2L41 3L43 3L43 4L44 4L44 5L41 5L41 4L39 4L39 5L37 5L37 7L38 7L38 6L39 6L39 7L40 7L40 8L39 8L39 9L40 9L40 8L42 8L42 9L43 9L43 11L42 11L42 12L41 12L41 14L39 14L39 15L38 15L38 14L37 14L37 13L34 13L34 14L33 14L33 13L32 13L32 12L34 12L34 11L35 11L35 12L37 12L37 11L36 11L36 9L35 9L35 10L34 10L34 9L32 9L32 11L31 11L31 13L30 13L30 11L29 11L29 12L28 12L28 11L27 11L27 7L28 7L28 9L30 9L30 10L31 10L31 9L30 9L30 6L29 6L29 7L28 7L28 5L27 5L27 4L26 4L26 3L25 3L25 4L26 4L26 5L24 5L24 3L23 3L23 4L22 4L22 5L23 5L23 8L25 8L25 10L24 10L24 12L25 12L25 14L24 14L24 15L23 15L23 13L22 13L22 12L23 12L23 10L22 10L22 6L21 6L21 5L19 5L19 4L17 4L17 3L16 3L16 4L15 4L15 3L14 3L14 2ZM49 3L49 4L51 4L51 3ZM60 3L60 5L61 5L61 3ZM33 5L33 8L36 8L36 5ZM9 6L9 7L10 7L10 6ZM16 6L16 7L15 7L15 9L16 9L16 11L15 11L15 12L14 12L14 14L15 14L15 16L17 16L17 15L18 15L18 13L19 13L19 12L22 12L22 10L21 10L21 9L20 9L20 7L21 7L21 6L20 6L20 7L19 7L19 6L18 6L18 7L17 7L17 6ZM24 6L24 7L25 7L25 8L26 8L26 7L27 7L27 6L26 6L26 7L25 7L25 6ZM34 6L34 7L35 7L35 6ZM40 6L40 7L41 7L41 6ZM42 6L42 8L43 8L43 6ZM46 6L46 7L47 7L47 6ZM49 6L49 7L50 7L50 6ZM60 6L60 7L61 7L61 6ZM17 8L17 10L18 10L18 11L16 11L16 14L17 14L17 13L18 13L18 11L19 11L19 10L20 10L20 9L19 9L19 10L18 10L18 8ZM1 10L1 11L2 11L2 10ZM25 10L25 12L26 12L26 13L27 13L27 14L28 14L28 15L26 15L26 14L25 14L25 15L24 15L24 16L23 16L23 15L21 15L21 16L20 16L20 15L19 15L19 16L20 16L20 17L17 17L17 18L16 18L16 17L14 17L14 20L12 20L12 19L13 19L13 17L12 17L12 16L13 16L13 13L12 13L12 14L11 14L11 17L12 17L12 19L10 19L10 17L9 17L9 16L8 16L8 17L9 17L9 18L8 18L8 22L6 22L6 21L7 21L7 20L6 20L6 21L5 21L5 18L6 18L6 19L7 19L7 18L6 18L6 17L7 17L7 16L6 16L6 17L5 17L5 16L4 16L4 17L5 17L5 18L4 18L4 20L3 20L3 21L4 21L4 22L6 22L6 23L12 23L12 22L13 22L13 24L12 24L12 25L13 25L13 26L11 26L11 24L9 24L9 25L8 25L8 24L6 24L6 25L7 25L7 26L6 26L6 27L7 27L7 26L9 26L9 27L10 27L10 26L11 26L11 27L12 27L12 28L10 28L10 29L11 29L11 31L12 31L12 32L10 32L10 34L11 34L11 33L12 33L12 34L15 34L15 33L13 33L13 32L18 32L18 33L16 33L16 34L18 34L18 35L17 35L17 37L19 37L19 36L18 36L18 35L19 35L19 33L20 33L20 34L21 34L21 33L20 33L20 32L22 32L22 33L23 33L23 34L22 34L22 35L20 35L20 36L21 36L21 37L23 37L23 38L21 38L21 40L23 40L23 41L21 41L21 43L19 43L19 44L15 44L15 42L14 42L14 41L13 41L13 42L12 42L12 41L11 41L11 40L9 40L9 42L8 42L8 41L7 41L7 42L6 42L6 43L7 43L7 44L9 44L9 42L10 42L10 44L11 44L11 46L10 46L10 45L7 45L7 46L10 46L10 47L11 47L11 46L12 46L12 48L13 48L13 50L14 50L14 51L15 51L15 50L16 50L16 51L17 51L17 52L14 52L14 53L15 53L15 55L16 55L16 54L17 54L17 53L19 53L19 52L20 52L20 53L21 53L21 52L20 52L20 51L18 51L18 50L21 50L21 51L22 51L22 50L25 50L25 52L24 52L24 51L23 51L23 53L24 53L24 54L25 54L25 52L26 52L26 53L27 53L27 55L26 55L26 56L27 56L27 55L28 55L28 54L31 54L31 55L30 55L30 56L29 56L29 57L27 57L27 58L29 58L29 59L30 59L30 58L29 58L29 57L31 57L31 58L32 58L32 56L31 56L31 55L32 55L32 54L33 54L33 55L34 55L34 57L35 57L35 58L37 58L37 57L38 57L38 56L39 56L39 54L38 54L38 52L39 52L39 49L38 49L38 50L37 50L37 48L39 48L39 47L41 47L41 46L39 46L39 45L37 45L37 44L38 44L38 43L41 43L41 42L43 42L43 43L44 43L44 42L43 42L43 41L46 41L46 42L47 42L47 41L48 41L48 42L49 42L49 44L48 44L48 45L49 45L49 46L51 46L51 47L49 47L49 48L48 48L48 49L47 49L47 51L46 51L46 52L47 52L47 51L48 51L48 53L45 53L45 54L47 54L47 55L46 55L46 56L45 56L45 57L46 57L46 60L47 60L47 58L48 58L48 59L49 59L49 60L48 60L48 61L47 61L47 62L48 62L48 63L50 63L50 65L51 65L51 64L53 64L53 63L54 63L54 64L55 64L55 63L56 63L56 62L55 62L55 59L56 59L56 58L55 58L55 57L56 57L56 56L55 56L55 55L56 55L56 54L55 54L55 52L54 52L54 50L55 50L55 49L54 49L54 48L55 48L55 47L53 47L53 48L52 48L52 46L51 46L51 45L53 45L53 41L54 41L54 43L56 43L56 44L57 44L57 43L58 43L58 42L59 42L59 43L60 43L60 40L59 40L59 38L58 38L58 39L57 39L57 40L56 40L56 42L55 42L55 41L54 41L54 40L53 40L53 41L52 41L52 42L51 42L51 43L50 43L50 42L49 42L49 40L50 40L50 41L51 41L51 40L50 40L50 38L51 38L51 39L53 39L53 37L54 37L54 38L55 38L55 37L54 37L54 36L52 36L52 38L51 38L51 36L50 36L50 35L47 35L47 36L48 36L48 37L47 37L47 39L46 39L46 36L45 36L45 35L46 35L46 34L49 34L49 33L50 33L50 34L51 34L51 35L53 35L53 34L51 34L51 33L53 33L53 30L55 30L55 28L56 28L56 26L55 26L55 25L57 25L57 26L58 26L58 25L59 25L59 26L61 26L61 24L59 24L59 23L61 23L61 21L60 21L60 20L59 20L59 21L56 21L56 20L55 20L55 19L53 19L53 18L51 18L51 19L50 19L50 20L49 20L49 19L48 19L48 20L46 20L46 19L47 19L47 17L48 17L48 18L49 18L49 15L48 15L48 16L46 16L46 15L45 15L45 13L46 13L46 12L45 12L45 10L44 10L44 11L43 11L43 13L42 13L42 14L41 14L41 15L42 15L42 14L43 14L43 16L44 16L44 18L43 18L43 17L42 17L42 16L41 16L41 17L40 17L40 15L39 15L39 18L38 18L38 17L37 17L37 14L36 14L36 15L35 15L35 14L34 14L34 15L32 15L32 14L31 14L31 16L30 16L30 17L29 17L29 14L28 14L28 13L27 13L27 12L26 12L26 10ZM33 10L33 11L34 11L34 10ZM40 10L40 11L41 11L41 10ZM48 10L48 11L47 11L47 12L48 12L48 13L47 13L47 14L48 14L48 13L50 13L50 11L49 11L49 10ZM59 10L59 12L60 12L60 10ZM66 10L66 11L67 11L67 10ZM53 11L53 12L54 12L54 11ZM39 12L39 13L40 13L40 12ZM9 13L9 15L10 15L10 13ZM20 13L20 14L21 14L21 13ZM53 14L53 15L54 15L54 14ZM61 14L61 15L62 15L62 14ZM44 15L44 16L45 16L45 17L46 17L46 16L45 16L45 15ZM21 16L21 18L20 18L20 19L19 19L19 21L17 21L17 22L16 22L16 24L17 24L17 26L16 26L16 29L15 29L15 27L14 27L14 26L13 26L13 27L14 27L14 31L16 31L16 29L17 29L17 28L19 28L19 27L20 27L20 29L18 29L18 30L22 30L22 29L23 29L23 30L24 30L24 31L22 31L22 32L23 32L23 33L24 33L24 32L25 32L25 30L24 30L24 29L23 29L23 28L22 28L22 27L24 27L24 25L26 25L26 26L25 26L25 27L27 27L27 29L28 29L28 27L29 27L29 29L30 29L30 30L28 30L28 31L27 31L27 30L26 30L26 31L27 31L27 32L26 32L26 33L25 33L25 35L24 35L24 34L23 34L23 35L24 35L24 36L25 36L25 35L27 35L27 36L28 36L28 35L29 35L29 37L28 37L28 38L27 38L27 37L25 37L25 38L23 38L23 39L25 39L25 38L27 38L27 42L28 42L28 44L25 44L25 43L26 43L26 41L25 41L25 42L24 42L24 41L23 41L23 42L24 42L24 45L23 45L23 46L24 46L24 45L25 45L25 46L26 46L26 48L28 48L28 49L27 49L27 50L29 50L29 51L26 51L26 52L27 52L27 53L30 53L30 51L31 51L31 52L32 52L32 51L31 51L31 49L30 49L30 48L29 48L29 46L28 46L28 47L27 47L27 45L30 45L30 47L31 47L31 48L32 48L32 50L33 50L33 51L37 51L37 52L33 52L33 53L34 53L34 55L35 55L35 54L36 54L36 53L37 53L37 52L38 52L38 51L37 51L37 50L36 50L36 46L35 46L35 45L34 45L34 46L35 46L35 47L33 47L33 48L32 48L32 46L33 46L33 44L35 44L35 43L38 43L38 42L39 42L39 41L40 41L40 42L41 42L41 40L40 40L40 39L42 39L42 37L43 37L43 36L44 36L44 35L45 35L45 32L46 32L46 33L48 33L48 31L47 31L47 30L46 30L46 29L47 29L47 27L48 27L48 28L49 28L49 29L50 29L50 31L49 31L49 32L50 32L50 33L51 33L51 32L50 32L50 31L52 31L52 30L51 30L51 28L52 28L52 29L53 29L53 28L55 28L55 27L54 27L54 24L56 24L56 23L57 23L57 22L56 22L56 21L55 21L55 22L54 22L54 23L51 23L51 25L52 25L52 24L53 24L53 28L52 28L52 26L51 26L51 27L50 27L50 28L49 28L49 27L48 27L48 26L50 26L50 22L47 22L47 24L49 24L49 25L46 25L46 23L44 23L44 21L46 21L46 20L45 20L45 19L46 19L46 18L45 18L45 19L43 19L43 20L44 20L44 21L43 21L43 22L42 22L42 20L41 20L41 18L39 18L39 20L38 20L38 19L36 19L36 18L35 18L35 17L36 17L36 16L33 16L33 17L34 17L34 18L33 18L33 21L35 21L35 22L32 22L32 21L31 21L31 22L30 22L30 21L29 21L29 22L27 22L27 21L28 21L28 20L29 20L29 18L28 18L28 19L27 19L27 18L26 18L26 17L25 17L25 16L24 16L24 17L23 17L23 16ZM31 16L31 17L30 17L30 20L32 20L32 19L31 19L31 17L32 17L32 16ZM24 17L24 18L23 18L23 19L21 19L21 20L20 20L20 21L19 21L19 22L21 22L21 23L20 23L20 24L18 24L18 22L17 22L17 24L18 24L18 26L19 26L19 25L20 25L20 27L22 27L22 26L21 26L21 25L20 25L20 24L22 24L22 25L23 25L23 24L22 24L22 22L23 22L23 23L24 23L24 22L26 22L26 20L25 20L25 19L26 19L26 18L25 18L25 17ZM15 18L15 20L14 20L14 21L13 21L13 22L14 22L14 23L15 23L15 20L16 20L16 18ZM17 18L17 20L18 20L18 18ZM34 18L34 19L35 19L35 18ZM9 19L9 20L10 20L10 19ZM23 19L23 20L24 20L24 21L23 21L23 22L24 22L24 21L25 21L25 20L24 20L24 19ZM51 19L51 20L50 20L50 21L51 21L51 22L52 22L52 19ZM57 19L57 20L58 20L58 19ZM61 19L61 20L62 20L62 19ZM11 20L11 21L9 21L9 22L12 22L12 20ZM36 20L36 21L37 21L37 20ZM40 20L40 21L38 21L38 22L36 22L36 23L33 23L33 24L32 24L32 23L31 23L31 24L30 24L30 22L29 22L29 23L27 23L27 24L26 24L26 25L27 25L27 24L30 24L30 25L31 25L31 27L32 27L32 28L33 28L33 30L32 30L32 29L31 29L31 28L30 28L30 29L31 29L31 30L30 30L30 32L29 32L29 33L28 33L28 32L27 32L27 33L26 33L26 34L27 34L27 35L28 35L28 34L29 34L29 35L32 35L32 37L31 37L31 36L30 36L30 39L31 39L31 40L30 40L30 41L29 41L29 39L28 39L28 42L29 42L29 44L30 44L30 45L31 45L31 46L32 46L32 45L31 45L31 44L33 44L33 42L34 42L34 43L35 43L35 42L34 42L34 40L36 40L36 42L38 42L38 41L39 41L39 39L38 39L38 38L40 38L40 37L42 37L42 36L43 36L43 33L44 33L44 32L42 32L42 31L40 31L40 32L39 32L39 30L38 30L38 28L35 28L35 27L38 27L38 26L39 26L39 27L40 27L40 28L41 28L41 27L43 27L43 28L44 28L44 29L41 29L41 30L43 30L43 31L44 31L44 29L45 29L45 28L44 28L44 26L45 26L45 24L44 24L44 23L42 23L42 25L41 25L41 23L40 23L40 22L41 22L41 20ZM53 20L53 21L54 21L54 20ZM64 20L64 21L65 21L65 20ZM21 21L21 22L22 22L22 21ZM59 21L59 22L58 22L58 23L59 23L59 22L60 22L60 21ZM38 22L38 23L37 23L37 26L38 26L38 25L39 25L39 26L40 26L40 27L41 27L41 25L40 25L40 23L39 23L39 22ZM13 24L13 25L15 25L15 24ZM31 24L31 25L32 25L32 26L33 26L33 28L34 28L34 29L35 29L35 28L34 28L34 26L33 26L33 25L34 25L34 24L33 24L33 25L32 25L32 24ZM35 24L35 25L36 25L36 24ZM43 24L43 26L44 26L44 24ZM57 24L57 25L58 25L58 24ZM68 24L68 26L69 26L69 24ZM4 25L4 26L5 26L5 25ZM9 25L9 26L10 26L10 25ZM0 26L0 30L2 30L2 29L1 29L1 26ZM27 26L27 27L28 27L28 26ZM29 26L29 27L30 27L30 26ZM12 28L12 29L13 29L13 28ZM36 29L36 30L35 30L35 31L33 31L33 32L36 32L36 30L37 30L37 29ZM9 30L9 31L10 31L10 30ZM12 30L12 31L13 31L13 30ZM19 31L19 32L20 32L20 31ZM31 31L31 32L32 32L32 31ZM37 31L37 33L38 33L38 31ZM54 31L54 32L56 32L56 31ZM63 31L63 32L65 32L65 34L66 34L66 35L65 35L65 36L66 36L66 37L67 37L67 36L66 36L66 35L67 35L67 34L66 34L66 32L65 32L65 31ZM5 33L5 36L8 36L8 33ZM29 33L29 34L32 34L32 33ZM33 33L33 36L36 36L36 33ZM39 33L39 34L37 34L37 37L36 37L36 38L38 38L38 37L40 37L40 35L41 35L41 36L42 36L42 35L41 35L41 34L42 34L42 33ZM61 33L61 36L64 36L64 33ZM6 34L6 35L7 35L7 34ZM34 34L34 35L35 35L35 34ZM56 34L56 35L57 35L57 34ZM62 34L62 35L63 35L63 34ZM11 35L11 36L13 36L13 35ZM38 35L38 36L39 36L39 35ZM49 36L49 37L48 37L48 40L49 40L49 38L50 38L50 36ZM13 37L13 38L14 38L14 37ZM32 37L32 38L33 38L33 37ZM8 38L8 39L10 39L10 38ZM34 38L34 39L32 39L32 40L34 40L34 39L35 39L35 38ZM43 38L43 40L44 40L44 39L45 39L45 40L46 40L46 41L47 41L47 40L46 40L46 39L45 39L45 38ZM60 38L60 39L61 39L61 38ZM30 41L30 43L31 43L31 41ZM7 42L7 43L8 43L8 42ZM13 42L13 43L14 43L14 42ZM56 42L56 43L57 43L57 42ZM11 43L11 44L12 44L12 43ZM22 43L22 44L19 44L19 45L17 45L17 46L16 46L16 45L15 45L15 44L14 44L14 45L13 45L13 47L14 47L14 46L15 46L15 47L16 47L16 48L17 48L17 49L16 49L16 50L18 50L18 49L19 49L19 45L22 45L22 44L23 44L23 43ZM40 44L40 45L42 45L42 46L45 46L45 45L44 45L44 44L43 44L43 45L42 45L42 44ZM49 44L49 45L51 45L51 44ZM37 46L37 47L38 47L38 46ZM57 46L57 49L58 49L58 50L59 50L59 51L60 51L60 52L61 52L61 51L64 51L64 52L63 52L63 53L61 53L61 54L63 54L63 53L65 53L65 51L66 51L66 50L67 50L67 49L65 49L65 48L64 48L64 50L63 50L63 49L61 49L61 48L63 48L63 47L60 47L60 46ZM17 47L17 48L18 48L18 47ZM20 47L20 48L21 48L21 50L22 50L22 48L21 48L21 47ZM24 47L24 49L25 49L25 47ZM59 47L59 48L58 48L58 49L60 49L60 51L61 51L61 49L60 49L60 47ZM67 47L67 48L68 48L68 47ZM34 48L34 49L33 49L33 50L34 50L34 49L35 49L35 48ZM49 48L49 49L48 49L48 51L50 51L50 52L49 52L49 54L48 54L48 55L47 55L47 56L46 56L46 57L48 57L48 56L51 56L51 58L49 58L49 59L50 59L50 60L49 60L49 62L50 62L50 61L51 61L51 58L52 58L52 60L53 60L53 57L55 57L55 56L54 56L54 55L55 55L55 54L53 54L53 53L54 53L54 52L52 52L52 49L51 49L51 51L50 51L50 50L49 50L49 49L50 49L50 48ZM1 49L1 50L2 50L2 49ZM14 49L14 50L15 50L15 49ZM29 49L29 50L30 50L30 49ZM53 49L53 50L54 50L54 49ZM40 50L40 52L42 52L42 51L41 51L41 50ZM64 50L64 51L65 51L65 50ZM50 52L50 53L51 53L51 52ZM9 53L9 54L10 54L10 55L12 55L12 54L10 54L10 53ZM31 53L31 54L32 54L32 53ZM0 54L0 61L1 61L1 58L2 58L2 59L3 59L3 58L4 58L4 59L7 59L7 60L6 60L6 61L7 61L7 60L8 60L8 59L7 59L7 58L5 58L5 57L3 57L3 54L2 54L2 57L1 57L1 54ZM13 54L13 55L14 55L14 54ZM51 54L51 55L52 55L52 54ZM64 54L64 55L63 55L63 56L64 56L64 55L65 55L65 54ZM37 55L37 56L38 56L38 55ZM35 56L35 57L36 57L36 56ZM52 56L52 57L53 57L53 56ZM65 56L65 57L66 57L66 58L65 58L65 61L66 61L66 59L67 59L67 58L68 58L68 57L66 57L66 56ZM16 57L16 58L18 58L18 57ZM21 58L21 59L22 59L22 58ZM62 59L62 60L64 60L64 59ZM3 60L3 61L5 61L5 60ZM11 60L11 61L12 61L12 60ZM22 60L22 61L23 61L23 60ZM56 60L56 61L57 61L57 62L58 62L58 63L57 63L57 64L58 64L58 63L59 63L59 62L58 62L58 60ZM13 61L13 62L15 62L15 61ZM26 61L26 62L27 62L27 61ZM33 61L33 64L36 64L36 61ZM53 61L53 62L54 62L54 63L55 63L55 62L54 62L54 61ZM61 61L61 64L64 64L64 61ZM30 62L30 63L31 63L31 62ZM34 62L34 63L35 63L35 62ZM62 62L62 63L63 63L63 62ZM9 63L9 64L8 64L8 66L9 66L9 65L10 65L10 63ZM13 63L13 64L14 64L14 63ZM24 63L24 65L25 65L25 64L27 64L27 63ZM39 63L39 64L40 64L40 63ZM66 63L66 64L67 64L67 63ZM68 63L68 64L69 64L69 63ZM30 64L30 65L31 65L31 66L32 66L32 65L31 65L31 64ZM44 64L44 65L45 65L45 64ZM48 64L48 65L49 65L49 64ZM12 65L12 66L13 66L13 65ZM17 65L17 66L18 66L18 67L19 67L19 66L18 66L18 65ZM62 65L62 66L61 66L61 67L62 67L62 66L63 66L63 67L64 67L64 68L65 68L65 67L66 67L66 66L65 66L65 67L64 67L64 66L63 66L63 65ZM59 66L59 68L60 68L60 66ZM40 68L40 69L41 69L41 68ZM45 68L45 69L46 69L46 68ZM54 68L54 69L56 69L56 68ZM0 0L0 7L7 7L7 0ZM1 1L1 6L6 6L6 1ZM2 2L2 5L5 5L5 2ZM62 0L62 7L69 7L69 0ZM63 1L63 6L68 6L68 1ZM64 2L64 5L67 5L67 2ZM0 62L0 69L7 69L7 62ZM1 63L1 68L6 68L6 63ZM2 64L2 67L5 67L5 64Z" fill="#000000"/></g></g></svg>
