<?xml version="1.0" encoding="UTF-8"?>
<svg xmlns="http://www.w3.org/2000/svg" version="1.1" width="100" height="100" viewBox="0 0 100 100"><rect x="0" y="0" width="100" height="100" fill="#ffffff"/><g transform="scale(1.538)"><g transform="translate(0,0)"><path fill-rule="evenodd" d="M8 0L8 1L10 1L10 2L8 2L8 5L9 5L9 3L10 3L10 4L11 4L11 6L10 6L10 7L9 7L9 6L8 6L8 7L9 7L9 8L8 8L8 10L6 10L6 9L7 9L7 8L6 8L6 9L4 9L4 8L0 8L0 9L3 9L3 10L5 10L5 11L4 11L4 12L3 12L3 11L2 11L2 10L0 10L0 11L1 11L1 12L3 12L3 14L2 14L2 13L0 13L0 15L2 15L2 16L3 16L3 17L2 17L2 18L3 18L3 17L4 17L4 18L5 18L5 19L0 19L0 21L1 21L1 20L3 20L3 21L2 21L2 22L1 22L1 23L0 23L0 24L1 24L1 23L3 23L3 21L4 21L4 20L6 20L6 21L8 21L8 22L6 22L6 23L4 23L4 26L3 26L3 27L2 27L2 26L1 26L1 25L0 25L0 28L3 28L3 30L2 30L2 29L1 29L1 30L2 30L2 31L1 31L1 32L0 32L0 34L3 34L3 35L0 35L0 38L1 38L1 40L0 40L0 42L1 42L1 43L4 43L4 44L6 44L6 45L4 45L4 46L5 46L5 47L4 47L4 48L3 48L3 44L2 44L2 46L1 46L1 45L0 45L0 50L1 50L1 47L2 47L2 48L3 48L3 49L2 49L2 50L3 50L3 49L4 49L4 51L5 51L5 50L6 50L6 51L7 51L7 50L6 50L6 49L8 49L8 50L9 50L9 51L8 51L8 52L9 52L9 51L11 51L11 52L10 52L10 54L9 54L9 53L7 53L7 52L3 52L3 53L0 53L0 54L2 54L2 55L3 55L3 56L1 56L1 55L0 55L0 56L1 56L1 57L3 57L3 56L4 56L4 57L5 57L5 56L4 56L4 54L3 54L3 53L5 53L5 55L7 55L7 54L9 54L9 55L8 55L8 56L6 56L6 57L8 57L8 58L9 58L9 57L11 57L11 58L12 58L12 60L10 60L10 61L8 61L8 65L10 65L10 63L11 63L11 65L12 65L12 64L14 64L14 65L15 65L15 64L14 64L14 63L15 63L15 62L19 62L19 64L20 64L20 65L22 65L22 63L23 63L23 65L24 65L24 63L25 63L25 65L27 65L27 64L28 64L28 65L29 65L29 64L30 64L30 63L31 63L31 64L32 64L32 65L33 65L33 64L32 64L32 63L31 63L31 62L33 62L33 63L35 63L35 62L36 62L36 63L39 63L39 62L40 62L40 64L41 64L41 65L42 65L42 64L44 64L44 65L46 65L46 64L45 64L45 63L43 63L43 62L40 62L40 58L41 58L41 57L42 57L42 59L41 59L41 61L43 61L43 60L45 60L45 59L43 59L43 58L45 58L45 57L44 57L44 55L45 55L45 54L44 54L44 53L45 53L45 52L46 52L46 55L47 55L47 52L49 52L49 53L48 53L48 54L50 54L50 53L51 53L51 55L52 55L52 56L51 56L51 58L50 58L50 60L48 60L48 59L49 59L49 58L47 58L47 59L46 59L46 61L44 61L44 62L46 62L46 63L47 63L47 65L48 65L48 63L50 63L50 64L49 64L49 65L50 65L50 64L51 64L51 65L52 65L52 64L53 64L53 65L59 65L59 64L58 64L58 63L59 63L59 62L58 62L58 61L60 61L60 62L61 62L61 64L60 64L60 65L61 65L61 64L62 64L62 63L63 63L63 65L64 65L64 63L65 63L65 62L64 62L64 63L63 63L63 61L64 61L64 54L65 54L65 53L64 53L64 52L62 52L62 51L61 51L61 52L60 52L60 53L59 53L59 52L58 52L58 51L59 51L59 49L58 49L58 48L57 48L57 47L58 47L58 46L57 46L57 47L56 47L56 49L58 49L58 50L56 50L56 51L55 51L55 50L54 50L54 53L52 53L52 52L53 52L53 50L52 50L52 49L51 49L51 48L52 48L52 47L53 47L53 49L55 49L55 48L54 48L54 47L55 47L55 45L57 45L57 44L58 44L58 45L59 45L59 47L60 47L60 49L61 49L61 47L60 47L60 46L61 46L61 45L62 45L62 46L63 46L63 51L65 51L65 49L64 49L64 48L65 48L65 47L64 47L64 46L63 46L63 45L62 45L62 44L63 44L63 40L64 40L64 42L65 42L65 38L63 38L63 37L61 37L61 38L63 38L63 40L62 40L62 39L60 39L60 38L58 38L58 37L60 37L60 36L59 36L59 35L62 35L62 33L63 33L63 35L64 35L64 36L65 36L65 35L64 35L64 34L65 34L65 33L63 33L63 32L65 32L65 31L62 31L62 33L61 33L61 30L63 30L63 29L62 29L62 28L61 28L61 27L59 27L59 28L61 28L61 30L60 30L60 29L58 29L58 27L57 27L57 26L58 26L58 25L61 25L61 26L62 26L62 27L65 27L65 26L64 26L64 25L65 25L65 24L64 24L64 22L63 22L63 24L64 24L64 25L61 25L61 23L62 23L62 22L61 22L61 23L59 23L59 24L58 24L58 23L55 23L55 24L53 24L53 25L55 25L55 24L56 24L56 26L53 26L53 27L52 27L52 25L50 25L50 22L49 22L49 21L53 21L53 22L56 22L56 21L54 21L54 20L53 20L53 19L52 19L52 18L54 18L54 19L56 19L56 18L54 18L54 17L55 17L55 16L56 16L56 14L58 14L58 15L59 15L59 14L62 14L62 13L61 13L61 12L60 12L60 11L59 11L59 10L58 10L58 13L57 13L57 12L56 12L56 11L57 11L57 10L56 10L56 11L55 11L55 9L53 9L53 8L56 8L56 9L58 9L58 8L57 8L57 6L56 6L56 7L55 7L55 5L54 5L54 4L56 4L56 5L57 5L57 4L56 4L56 3L57 3L57 1L56 1L56 0L55 0L55 1L56 1L56 3L55 3L55 2L54 2L54 0L53 0L53 2L54 2L54 3L53 3L53 4L52 4L52 5L54 5L54 7L53 7L53 6L52 6L52 7L51 7L51 3L50 3L50 2L49 2L49 1L47 1L47 2L49 2L49 3L45 3L45 4L47 4L47 6L46 6L46 5L45 5L45 6L44 6L44 2L45 2L45 1L44 1L44 0L39 0L39 2L37 2L37 3L36 3L36 1L37 1L37 0L36 0L36 1L34 1L34 2L35 2L35 3L34 3L34 4L32 4L32 2L33 2L33 1L32 1L32 0L29 0L29 1L31 1L31 3L30 3L30 2L28 2L28 1L26 1L26 2L25 2L25 0L23 0L23 1L21 1L21 2L23 2L23 1L24 1L24 3L25 3L25 4L26 4L26 5L25 5L25 6L24 6L24 5L23 5L23 6L22 6L22 7L21 7L21 6L20 6L20 9L22 9L22 10L23 10L23 11L20 11L20 10L19 10L19 9L18 9L18 10L17 10L17 9L16 9L16 10L15 10L15 6L14 6L14 8L12 8L12 9L11 9L11 8L10 8L10 7L11 7L11 6L12 6L12 7L13 7L13 6L12 6L12 5L13 5L13 4L14 4L14 3L15 3L15 5L16 5L16 8L17 8L17 5L18 5L18 8L19 8L19 5L21 5L21 3L20 3L20 0L18 0L18 3L17 3L17 4L16 4L16 3L15 3L15 2L17 2L17 0L16 0L16 1L13 1L13 3L12 3L12 0L11 0L11 1L10 1L10 0ZM51 0L51 2L52 2L52 0ZM40 1L40 4L39 4L39 3L38 3L38 4L37 4L37 7L36 7L36 5L35 5L35 7L36 7L36 10L37 10L37 11L38 11L38 10L40 10L40 13L39 13L39 14L38 14L38 15L40 15L40 14L42 14L42 15L41 15L41 16L40 16L40 17L38 17L38 18L39 18L39 19L37 19L37 15L34 15L34 14L35 14L35 13L36 13L36 12L35 12L35 9L33 9L33 10L32 10L32 9L29 9L29 8L28 8L28 6L29 6L29 7L30 7L30 6L29 6L29 4L28 4L28 2L27 2L27 3L26 3L26 4L28 4L28 5L27 5L27 7L26 7L26 6L25 6L25 9L27 9L27 8L28 8L28 10L27 10L27 12L26 12L26 13L24 13L24 15L22 15L22 14L20 14L20 13L23 13L23 12L20 12L20 13L19 13L19 16L18 16L18 14L16 14L16 15L15 15L15 14L14 14L14 13L13 13L13 12L14 12L14 10L12 10L12 11L13 11L13 12L12 12L12 13L11 13L11 9L10 9L10 11L9 11L9 10L8 10L8 11L5 11L5 13L4 13L4 14L3 14L3 15L4 15L4 14L5 14L5 15L6 15L6 16L7 16L7 17L5 17L5 16L4 16L4 17L5 17L5 18L8 18L8 13L9 13L9 16L10 16L10 18L11 18L11 19L10 19L10 21L9 21L9 19L6 19L6 20L8 20L8 21L9 21L9 22L8 22L8 23L6 23L6 24L8 24L8 27L5 27L5 26L4 26L4 27L3 27L3 28L8 28L8 29L6 29L6 30L8 30L8 29L9 29L9 31L10 31L10 30L11 30L11 32L12 32L12 31L13 31L13 32L14 32L14 31L15 31L15 29L16 29L16 30L17 30L17 32L16 32L16 34L15 34L15 33L14 33L14 35L17 35L17 36L16 36L16 37L15 37L15 38L17 38L17 40L16 40L16 39L15 39L15 41L14 41L14 40L13 40L13 39L11 39L11 37L13 37L13 38L14 38L14 37L13 37L13 35L12 35L12 34L13 34L13 33L12 33L12 34L11 34L11 33L10 33L10 32L9 32L9 34L11 34L11 35L6 35L6 36L4 36L4 35L3 35L3 36L1 36L1 37L2 37L2 38L3 38L3 39L2 39L2 40L1 40L1 42L3 42L3 41L4 41L4 42L5 42L5 41L6 41L6 42L8 42L8 43L6 43L6 44L8 44L8 43L9 43L9 45L8 45L8 46L9 46L9 47L10 47L10 46L9 46L9 45L12 45L12 46L11 46L11 48L12 48L12 50L11 50L11 51L12 51L12 52L11 52L11 53L12 53L12 54L13 54L13 55L11 55L11 54L10 54L10 55L11 55L11 56L12 56L12 57L13 57L13 55L14 55L14 56L15 56L15 55L16 55L16 54L15 54L15 53L16 53L16 52L17 52L17 51L19 51L19 52L18 52L18 54L19 54L19 56L18 56L18 57L17 57L17 56L16 56L16 58L13 58L13 60L12 60L12 61L13 61L13 62L15 62L15 61L14 61L14 60L15 60L15 59L16 59L16 61L17 61L17 59L16 59L16 58L18 58L18 59L19 59L19 58L18 58L18 57L20 57L20 58L21 58L21 57L20 57L20 55L21 55L21 56L23 56L23 55L24 55L24 56L25 56L25 58L22 58L22 59L20 59L20 60L19 60L19 61L20 61L20 62L23 62L23 63L24 63L24 60L26 60L26 62L25 62L25 63L29 63L29 60L30 60L30 58L29 58L29 56L25 56L25 53L26 53L26 54L27 54L27 55L28 55L28 54L27 54L27 53L26 53L26 51L24 51L24 52L23 52L23 51L22 51L22 50L25 50L25 49L23 49L23 48L26 48L26 49L27 49L27 50L29 50L29 49L30 49L30 51L29 51L29 52L28 52L28 51L27 51L27 52L28 52L28 53L29 53L29 54L30 54L30 55L31 55L31 54L32 54L32 55L33 55L33 54L34 54L34 55L35 55L35 54L34 54L34 53L31 53L31 54L30 54L30 53L29 53L29 52L32 52L32 51L31 51L31 47L32 47L32 46L33 46L33 45L34 45L34 47L33 47L33 50L35 50L35 48L36 48L36 46L35 46L35 45L38 45L38 46L37 46L37 47L40 47L40 48L39 48L39 49L40 49L40 51L41 51L41 50L42 50L42 51L43 51L43 52L42 52L42 53L41 53L41 52L40 52L40 53L37 53L37 52L39 52L39 51L36 51L36 52L35 52L35 51L34 51L34 52L35 52L35 53L36 53L36 54L38 54L38 56L37 56L37 55L36 55L36 57L38 57L38 58L36 58L36 59L35 59L35 61L33 61L33 62L35 62L35 61L36 61L36 60L37 60L37 61L38 61L38 58L39 58L39 57L40 57L40 56L39 56L39 55L41 55L41 56L43 56L43 55L44 55L44 54L43 54L43 52L45 52L45 51L46 51L46 52L47 52L47 51L48 51L48 48L46 48L46 50L45 50L45 47L47 47L47 46L48 46L48 47L50 47L50 46L52 46L52 45L51 45L51 44L53 44L53 47L54 47L54 45L55 45L55 44L53 44L53 43L55 43L55 41L57 41L57 40L58 40L58 41L60 41L60 42L57 42L57 43L56 43L56 44L57 44L57 43L58 43L58 44L59 44L59 45L60 45L60 44L59 44L59 43L61 43L61 40L58 40L58 38L57 38L57 37L58 37L58 36L56 36L56 31L55 31L55 30L57 30L57 27L54 27L54 28L52 28L52 27L51 27L51 28L47 28L47 27L46 27L46 26L48 26L48 27L50 27L50 26L49 26L49 25L46 25L46 24L44 24L44 21L46 21L46 22L47 22L47 20L48 20L48 21L49 21L49 17L50 17L50 18L51 18L51 17L50 17L50 16L52 16L52 17L54 17L54 16L55 16L55 15L54 15L54 14L55 14L55 13L56 13L56 12L55 12L55 11L54 11L54 12L53 12L53 9L50 9L50 10L49 10L49 12L50 12L50 11L52 11L52 13L51 13L51 15L49 15L49 14L48 14L48 15L47 15L47 16L48 16L48 19L47 19L47 18L46 18L46 19L45 19L45 20L43 20L43 19L44 19L44 18L45 18L45 17L46 17L46 14L47 14L47 13L48 13L48 12L47 12L47 11L48 11L48 9L49 9L49 8L48 8L48 6L49 6L49 7L50 7L50 6L49 6L49 5L50 5L50 4L48 4L48 6L47 6L47 8L46 8L46 6L45 6L45 7L44 7L44 6L43 6L43 7L42 7L42 6L41 6L41 2L44 2L44 1ZM10 2L10 3L11 3L11 4L12 4L12 3L11 3L11 2ZM18 3L18 5L19 5L19 4L20 4L20 3ZM22 3L22 4L23 4L23 3ZM38 4L38 7L37 7L37 8L38 8L38 7L39 7L39 4ZM42 4L42 5L43 5L43 4ZM31 5L31 8L34 8L34 5ZM23 6L23 8L24 8L24 6ZM32 6L32 7L33 7L33 6ZM40 6L40 7L41 7L41 6ZM43 7L43 8L42 8L42 11L41 11L41 13L43 13L43 14L46 14L46 10L43 10L43 9L44 9L44 7ZM40 8L40 10L41 10L41 8ZM45 8L45 9L46 9L46 8ZM60 8L60 9L63 9L63 8ZM64 8L64 9L65 9L65 8ZM23 9L23 10L24 10L24 12L25 12L25 10L24 10L24 9ZM29 10L29 11L31 11L31 10ZM63 10L63 11L64 11L64 10ZM8 11L8 12L9 12L9 13L10 13L10 12L9 12L9 11ZM18 11L18 12L19 12L19 11ZM32 11L32 12L31 12L31 15L30 15L30 14L28 14L28 13L27 13L27 16L25 16L25 15L24 15L24 17L27 17L27 19L26 19L26 18L25 18L25 19L24 19L24 18L23 18L23 17L22 17L22 15L21 15L21 16L20 16L20 17L22 17L22 18L18 18L18 19L21 19L21 20L19 20L19 21L17 21L17 20L13 20L13 19L14 19L14 18L15 18L15 19L16 19L16 16L15 16L15 15L14 15L14 14L13 14L13 16L12 16L12 14L10 14L10 16L11 16L11 18L12 18L12 20L11 20L11 22L9 22L9 23L8 23L8 24L9 24L9 25L12 25L12 24L11 24L11 23L13 23L13 25L14 25L14 27L13 27L13 26L9 26L9 27L10 27L10 28L9 28L9 29L10 29L10 28L11 28L11 29L12 29L12 30L13 30L13 31L14 31L14 29L15 29L15 27L16 27L16 28L17 28L17 29L18 29L18 31L19 31L19 32L20 32L20 33L23 33L23 34L20 34L20 37L19 37L19 38L18 38L18 36L19 36L19 33L18 33L18 32L17 32L17 34L18 34L18 36L17 36L17 38L18 38L18 39L19 39L19 42L20 42L20 44L21 44L21 45L22 45L22 46L23 46L23 45L24 45L24 46L25 46L25 45L24 45L24 44L22 44L22 42L20 42L20 39L21 39L21 35L26 35L26 34L27 34L27 37L26 37L26 38L24 38L24 40L23 40L23 42L24 42L24 41L25 41L25 42L26 42L26 44L28 44L28 45L30 45L30 44L31 44L31 45L32 45L32 44L33 44L33 42L32 42L32 44L31 44L31 43L29 43L29 40L30 40L30 39L33 39L33 40L31 40L31 41L30 41L30 42L31 42L31 41L34 41L34 42L36 42L36 41L35 41L35 40L34 40L34 39L35 39L35 38L37 38L37 36L38 36L38 39L36 39L36 40L37 40L37 41L39 41L39 40L38 40L38 39L40 39L40 40L44 40L44 41L43 41L43 42L44 42L44 43L42 43L42 42L41 42L41 41L40 41L40 42L39 42L39 43L37 43L37 44L38 44L38 45L39 45L39 46L40 46L40 45L41 45L41 46L42 46L42 47L41 47L41 49L43 49L43 51L45 51L45 50L44 50L44 43L45 43L45 42L47 42L47 43L46 43L46 44L45 44L45 45L46 45L46 44L47 44L47 45L48 45L48 43L49 43L49 42L50 42L50 41L51 41L51 43L50 43L50 44L49 44L49 45L50 45L50 44L51 44L51 43L52 43L52 42L53 42L53 41L55 41L55 39L56 39L56 37L55 37L55 39L54 39L54 38L53 38L53 39L52 39L52 37L50 37L50 38L49 38L49 39L48 39L48 37L49 37L49 36L50 36L50 34L48 34L48 33L47 33L47 35L46 35L46 34L45 34L45 33L46 33L46 32L48 32L48 31L49 31L49 30L50 30L50 31L51 31L51 30L50 30L50 29L49 29L49 30L48 30L48 29L46 29L46 28L45 28L45 26L46 26L46 25L44 25L44 26L42 26L42 25L43 25L43 24L42 24L42 25L41 25L41 27L40 27L40 28L41 28L41 29L42 29L42 28L44 28L44 29L43 29L43 30L44 30L44 29L46 29L46 31L44 31L44 32L45 32L45 33L43 33L43 32L42 32L42 30L37 30L37 29L38 29L38 28L39 28L39 27L38 27L38 26L40 26L40 23L41 23L41 22L39 22L39 23L38 23L38 22L37 22L37 21L39 21L39 20L40 20L40 21L41 21L41 20L42 20L42 23L43 23L43 20L42 20L42 19L43 19L43 18L44 18L44 17L45 17L45 16L43 16L43 15L42 15L42 16L41 16L41 17L40 17L40 18L41 18L41 19L39 19L39 20L37 20L37 21L35 21L35 22L34 22L34 25L30 25L30 24L28 24L28 25L30 25L30 27L29 27L29 26L25 26L25 27L24 27L24 26L23 26L23 25L24 25L24 24L23 24L23 25L22 25L22 26L21 26L21 23L22 23L22 22L20 22L20 21L21 21L21 20L22 20L22 21L23 21L23 22L25 22L25 21L26 21L26 20L27 20L27 22L26 22L26 23L25 23L25 25L26 25L26 24L27 24L27 23L30 23L30 22L32 22L32 23L31 23L31 24L32 24L32 23L33 23L33 21L31 21L31 20L30 20L30 19L32 19L32 20L33 20L33 18L35 18L35 17L36 17L36 16L35 16L35 17L34 17L34 16L31 16L31 15L33 15L33 14L34 14L34 13L32 13L32 12L33 12L33 11ZM42 11L42 12L43 12L43 13L45 13L45 12L43 12L43 11ZM6 12L6 13L5 13L5 14L6 14L6 15L7 15L7 14L6 14L6 13L7 13L7 12ZM15 12L15 13L17 13L17 12ZM37 12L37 13L38 13L38 12ZM63 12L63 13L64 13L64 12ZM52 13L52 14L54 14L54 13ZM58 13L58 14L59 14L59 13ZM63 14L63 16L65 16L65 14ZM28 15L28 16L27 16L27 17L29 17L29 15ZM48 15L48 16L49 16L49 15ZM52 15L52 16L53 16L53 15ZM13 16L13 17L12 17L12 18L14 18L14 17L15 17L15 16ZM30 16L30 18L29 18L29 19L30 19L30 18L31 18L31 16ZM58 16L58 18L57 18L57 19L59 19L59 21L60 21L60 19L61 19L61 21L62 21L62 20L63 20L63 21L65 21L65 19L64 19L64 18L63 18L63 19L62 19L62 18L59 18L59 16ZM61 16L61 17L62 17L62 16ZM42 17L42 18L43 18L43 17ZM22 18L22 20L23 20L23 21L24 21L24 20L23 20L23 18ZM25 19L25 20L26 20L26 19ZM27 19L27 20L28 20L28 22L29 22L29 20L28 20L28 19ZM35 19L35 20L36 20L36 19ZM50 19L50 20L51 20L51 19ZM63 19L63 20L64 20L64 19ZM12 20L12 21L13 21L13 22L14 22L14 24L15 24L15 25L16 25L16 26L17 26L17 25L18 25L18 26L19 26L19 28L18 28L18 27L17 27L17 28L18 28L18 29L19 29L19 31L20 31L20 32L21 32L21 31L22 31L22 30L23 30L23 33L25 33L25 32L26 32L26 33L28 33L28 38L26 38L26 40L27 40L27 42L28 42L28 40L29 40L29 37L33 37L33 38L34 38L34 37L36 37L36 36L37 36L37 34L38 34L38 36L40 36L40 37L39 37L39 38L40 38L40 37L41 37L41 38L42 38L42 39L43 39L43 36L44 36L44 37L45 37L45 38L44 38L44 39L45 39L45 40L46 40L46 39L47 39L47 42L49 42L49 41L50 41L50 40L51 40L51 38L50 38L50 40L48 40L48 39L47 39L47 36L49 36L49 35L47 35L47 36L46 36L46 35L44 35L44 34L42 34L42 37L41 37L41 33L39 33L39 31L37 31L37 30L36 30L36 29L37 29L37 28L36 28L36 27L35 27L35 31L37 31L37 32L36 32L36 33L37 33L37 34L36 34L36 35L35 35L35 36L34 36L34 37L33 37L33 36L31 36L31 35L30 35L30 36L29 36L29 33L30 33L30 32L29 32L29 31L28 31L28 30L23 30L23 28L24 28L24 29L25 29L25 28L24 28L24 27L23 27L23 28L22 28L22 29L21 29L21 31L20 31L20 25L18 25L18 24L20 24L20 23L18 23L18 22L17 22L17 21L16 21L16 23L15 23L15 22L14 22L14 21L13 21L13 20ZM57 20L57 21L58 21L58 20ZM35 22L35 23L36 23L36 22ZM9 23L9 24L10 24L10 23ZM16 23L16 25L17 25L17 24L18 24L18 23ZM47 23L47 24L49 24L49 23ZM2 24L2 25L3 25L3 24ZM35 24L35 25L34 25L34 26L33 26L33 29L32 29L32 30L33 30L33 29L34 29L34 26L35 26L35 25L36 25L36 26L37 26L37 25L38 25L38 24L37 24L37 25L36 25L36 24ZM6 25L6 26L7 26L7 25ZM31 26L31 27L32 27L32 26ZM11 27L11 28L13 28L13 29L14 29L14 28L13 28L13 27ZM26 27L26 28L27 28L27 29L29 29L29 28L28 28L28 27ZM55 28L55 29L56 29L56 28ZM4 29L4 30L5 30L5 29ZM64 29L64 30L65 30L65 29ZM52 30L52 32L50 32L50 33L51 33L51 34L54 34L54 35L55 35L55 32L53 32L53 31L54 31L54 30ZM3 31L3 32L1 32L1 33L3 33L3 32L4 32L4 31ZM5 31L5 34L8 34L8 31ZM24 31L24 32L25 32L25 31ZM31 31L31 34L34 34L34 31ZM57 31L57 34L60 34L60 31ZM6 32L6 33L7 33L7 32ZM28 32L28 33L29 33L29 32ZM32 32L32 33L33 33L33 32ZM37 32L37 33L38 33L38 32ZM58 32L58 33L59 33L59 32ZM39 34L39 35L40 35L40 34ZM3 36L3 38L5 38L5 39L4 39L4 41L5 41L5 39L7 39L7 40L6 40L6 41L8 41L8 42L9 42L9 43L10 43L10 44L11 44L11 43L10 43L10 42L9 42L9 41L10 41L10 40L9 40L9 39L10 39L10 38L9 38L9 39L8 39L8 37L7 37L7 36L6 36L6 37L7 37L7 38L5 38L5 37L4 37L4 36ZM22 36L22 37L23 37L23 36ZM45 36L45 37L46 37L46 36ZM19 38L19 39L20 39L20 38ZM45 38L45 39L46 39L46 38ZM27 39L27 40L28 40L28 39ZM53 39L53 40L52 40L52 41L53 41L53 40L54 40L54 39ZM2 40L2 41L3 41L3 40ZM8 40L8 41L9 41L9 40ZM12 40L12 41L13 41L13 40ZM21 40L21 41L22 41L22 40ZM15 41L15 42L16 42L16 44L15 44L15 45L13 45L13 43L14 43L14 42L13 42L13 43L12 43L12 45L13 45L13 46L12 46L12 47L13 47L13 50L14 50L14 51L17 51L17 50L16 50L16 49L14 49L14 47L16 47L16 48L17 48L17 49L19 49L19 50L22 50L22 49L19 49L19 48L20 48L20 47L21 47L21 48L22 48L22 47L21 47L21 46L19 46L19 47L18 47L18 46L17 46L17 47L16 47L16 45L18 45L18 44L19 44L19 43L18 43L18 42L17 42L17 41ZM40 42L40 43L41 43L41 44L42 44L42 45L43 45L43 44L42 44L42 43L41 43L41 42ZM28 43L28 44L29 44L29 43ZM34 43L34 44L36 44L36 43ZM39 44L39 45L40 45L40 44ZM6 45L6 46L7 46L7 45ZM26 45L26 46L27 46L27 45ZM28 46L28 47L26 47L26 48L27 48L27 49L28 49L28 48L29 48L29 46ZM30 46L30 47L31 47L31 46ZM6 47L6 48L7 48L7 47ZM17 47L17 48L18 48L18 47ZM34 47L34 48L35 48L35 47ZM42 47L42 48L43 48L43 47ZM4 48L4 49L5 49L5 48ZM37 48L37 49L36 49L36 50L37 50L37 49L38 49L38 48ZM49 49L49 51L50 51L50 49ZM46 50L46 51L47 51L47 50ZM51 50L51 51L52 51L52 50ZM24 52L24 53L21 53L21 55L23 55L23 54L24 54L24 53L25 53L25 52ZM55 52L55 53L54 53L54 54L52 54L52 55L54 55L54 56L53 56L53 57L55 57L55 60L54 60L54 58L51 58L51 60L50 60L50 61L49 61L49 62L50 62L50 63L53 63L53 64L55 64L55 63L58 63L58 62L57 62L57 61L56 61L56 57L55 57L55 56L56 56L56 55L57 55L57 54L58 54L58 55L59 55L59 56L60 56L60 55L59 55L59 54L58 54L58 52L57 52L57 53L56 53L56 52ZM61 52L61 53L60 53L60 54L61 54L61 58L62 58L62 59L61 59L61 62L62 62L62 61L63 61L63 57L62 57L62 55L63 55L63 54L64 54L64 53L62 53L62 52ZM6 53L6 54L7 54L7 53ZM13 53L13 54L14 54L14 55L15 55L15 54L14 54L14 53ZM40 53L40 54L41 54L41 55L42 55L42 54L41 54L41 53ZM54 54L54 55L56 55L56 54ZM49 55L49 56L50 56L50 55ZM8 56L8 57L9 57L9 56ZM47 56L47 57L48 57L48 56ZM26 57L26 59L27 59L27 60L29 60L29 59L27 59L27 57ZM31 57L31 60L34 60L34 57ZM57 57L57 60L60 60L60 57ZM32 58L32 59L33 59L33 58ZM58 58L58 59L59 59L59 58ZM22 59L22 60L23 60L23 59ZM42 59L42 60L43 60L43 59ZM52 59L52 60L53 60L53 59ZM10 61L10 62L11 62L11 61ZM27 61L27 62L28 62L28 61ZM30 61L30 62L31 62L31 61ZM46 61L46 62L47 62L47 63L48 63L48 62L47 62L47 61ZM50 61L50 62L52 62L52 61ZM54 62L54 63L55 63L55 62ZM16 63L16 64L18 64L18 63ZM34 64L34 65L35 65L35 64ZM0 0L0 7L7 7L7 0ZM1 1L1 6L6 6L6 1ZM2 2L2 5L5 5L5 2ZM58 0L58 7L65 7L65 0ZM59 1L59 6L64 6L64 1ZM60 2L60 5L63 5L63 2ZM0 58L0 65L7 65L7 58ZM1 59L1 64L6 64L6 59ZM2 60L2 63L5 63L5 60Z" fill="#000000"/></g></g></svg>
